<?xml version="1.0" encoding="UTF-8"?><svg id="Layer_2" xmlns="http://www.w3.org/2000/svg" xmlns:xlink="http://www.w3.org/1999/xlink" viewBox="0 0 41.54 42.97"><defs><style>.cls-1{fill:#44bc96;}.cls-2{fill:#faac19;}.cls-3{fill:url(#linear-gradient);}</style><linearGradient id="linear-gradient" x1="0" y1="17.91" x2="41.54" y2="17.91" gradientUnits="userSpaceOnUse"><stop offset="0" stop-color="#f4f4f4"/><stop offset=".47" stop-color="#efeff0"/><stop offset=".98" stop-color="#e2e3e4"/><stop offset="1" stop-color="#e2e3e4"/></linearGradient></defs><g id="Layer_1-2"><path class="cls-2" d="M20.77,41.54c-.4,0-.72-.32-.72-.72v-8.59c0-.4.32-.72.72-.72s.72.32.72.72v8.59c0,.4-.32.72-.72.72Z"/><path class="cls-2" d="M30.8,42.97c-.18,0-.37-.07-.51-.21l-10.03-10.03c-.28-.28-.28-.73,0-1.01s.73-.28,1.01,0l10.03,10.03c.28.28.28.73,0,1.01-.14.14-.32.21-.51.21Z"/><path class="cls-2" d="M10.74,42.97c-.18,0-.37-.07-.51-.21-.28-.28-.28-.73,0-1.01l10.03-10.03c.28-.28.73-.28,1.01,0s.28.73,0,1.01l-10.03,10.03c-.14.14-.32.21-.51.21Z"/><path class="cls-2" d="M20.77,4.3c-.4,0-.72-.32-.72-.72V.72c0-.4.32-.72.72-.72s.72.32.72.72v2.86c0,.4-.32.72-.72.72Z"/><rect class="cls-3" y="3.58" width="41.54" height="28.65"/><path class="cls-1" d="M15.76,11.46H5.01c-.4,0-.72-.32-.72-.72s.32-.72.72-.72h10.74c.4,0,.72.32.72.72s-.32.72-.72.72Z"/><path class="cls-1" d="M11.46,9.31h-6.45c-.4,0-.72-.32-.72-.72s.32-.72.72-.72h6.45c.4,0,.72.32.72.72s-.32.72-.72.72Z"/><path class="cls-1" d="M15.76,13.61H5.01c-.4,0-.72-.32-.72-.72s.32-.72.72-.72h10.74c.4,0,.72.32.72.72s-.32.72-.72.72Z"/><path class="cls-1" d="M7.88,27.22c-.18,0-.37-.07-.51-.21-.28-.28-.28-.73,0-1.01l9.02-9.02c.28-.28.73-.28,1.01,0s.28.73,0,1.01l-9.02,9.02c-.14.14-.32.21-.51.21Z"/><path class="cls-1" d="M23.35,24.64c-.18,0-.37-.07-.51-.21l-6.45-6.45c-.28-.28-.28-.73,0-1.01s.73-.28,1.01,0l6.45,6.45c.28.28.28.73,0,1.01-.14.14-.32.21-.51.21Z"/><path class="cls-1" d="M23.35,24.64c-.18,0-.37-.07-.51-.21-.28-.28-.28-.73,0-1.01l10.31-10.31c.28-.28.73-.28,1.01,0s.28.73,0,1.01l-10.31,10.31c-.14.14-.32.21-.51.21Z"/><path class="cls-1" d="M33.66,19.34c-.4,0-.72-.32-.72-.72v-5.01c0-.4.32-.72.72-.72s.72.32.72.72v5.01c0,.4-.32.72-.72.72Z"/><path class="cls-1" d="M33.66,14.32h-5.01c-.4,0-.72-.32-.72-.72s.32-.72.72-.72h5.01c.4,0,.72.32.72.72s-.32.72-.72.72Z"/></g></svg>