<?xml version="1.0" encoding="UTF-8"?> <!-- XML declaration, needed for standalone previews -->
<svg id="Layer_2" xmlns="http://www.w3.org/2000/svg" xmlns:xlink="http://www.w3.org/1999/xlink" viewBox="0 0 26.82 27.78">
  <defs>
    <style>       
      ellipse.cls-1{fill:url(#linear-gradient-2);}
      path.cls-2{fill: #4c404f;} 
      path.cls-3{fill: url(#linear-gradient-10);}
      path.cls-4{fill: #4c404f;} 
      path.cls-5{fill: url(#linear-gradient-4);}
      path.cls-6{fill: url(#linear-gradient-3);}
      path.cls-7{fill: url(#linear-gradient-5);}
      path.cls-8{fill: url(#linear-gradient-8);}      
      path.cls-9{fill: url(#linear-gradient-7);}   
      path.cls-10{fill: url(#linear-gradient-9);}
      path.cls-11{fill: url(#linear-gradient-6);}
      ellipse.cls-12{fill: url(#linear-gradient);}

      <!-- Upper eye parts -->
      path.upperEye{fill: url(#linear-gradient-3);}
    </style>
    <linearGradient id="linear-gradient" x1="13.64" y1="25.92" x2="13.4" y2="14.34" gradientUnits="userSpaceOnUse">
      <stop offset="0" stop-color="#a86dad"/>
      <stop offset=".47" stop-color="#a66bab"/>
      <stop offset=".64" stop-color="#a264a6"/>
      <stop offset=".76" stop-color="#9a589e"/>
      <stop offset=".86" stop-color="#8f4792"/>
      <stop offset=".94" stop-color="#813182"/>
      <stop offset="1" stop-color="#731c73"/></linearGradient>
    <linearGradient id="linear-gradient-2" x1="13.36" y1="24.1" x2="13.42" y2="13.87" gradientUnits="userSpaceOnUse">
      <stop offset="0" stop-color="#71c6a4"/>
      <stop offset=".26" stop-color="#6dc4a2"/>
      <stop offset=".47" stop-color="#63be9d"/>
      <stop offset=".65" stop-color="#53b595"/>
      <stop offset=".83" stop-color="#3ba88a"/><stop offset="1" stop-color="#1d987c"/>
      <stop offset="1" stop-color="#1d987c"/>
    </linearGradient>
    <linearGradient id="linear-gradient-3" x1="13.18" y1="-.27" x2="13.32" y2="8.24" gradientUnits="userSpaceOnUse">
      <stop offset="0" stop-color="#882c88"/>
      <stop offset="1" stop-color="#6b266d"/>
    </linearGradient>
    <linearGradient id="linear-gradient-4" x1="13.54" y1="12.08" x2="13.41" y2="0" gradientUnits="userSpaceOnUse">
      <stop offset="0" stop-color="#a86dad"/>
      <stop offset="1" stop-color="#99549a"/>
    </linearGradient>
    <linearGradient id="linear-gradient-5" x1="4.41" y1="6.87" x2="12.06" y2="10.93" gradientUnits="userSpaceOnUse">
      <stop offset="0" stop-color="#02a97a"/>
      <stop offset="1" stop-color="#008e64"/>
    </linearGradient>
    <linearGradient id="linear-gradient-6" x1="5.03" y1="7.79" x2="10.81" y2="9.62" gradientUnits="userSpaceOnUse">
      <stop offset="0" stop-color="#71c6a4"/>
      <stop offset="1" stop-color="#44bc96"/>
    </linearGradient>
    <linearGradient id="linear-gradient-7" x1="15.59" y1="6.92" x2="23.32" y2="10.82" xlink:href="#linear-gradient-5"/>
    <linearGradient id="linear-gradient-8" x1="16.37" y1="7.68" x2="22.06" y2="9.77" xlink:href="#linear-gradient-6"/>
    <linearGradient id="linear-gradient-9" x1="13.42" y1="11.77" x2="13.41" y2="13.69" gradientUnits="userSpaceOnUse"><stop offset="0" stop-color="#f4f4f4"/>
      <stop offset="1" stop-color="#c0c2c4"/>
    </linearGradient>
    <linearGradient id="linear-gradient-10" x1="10.36" y1="27.72" x2="10.48" y2="27.77" xlink:href="#linear-gradient-2"/>
  </defs>
 <g id="Layer_1-2">
    <ellipse class="cls-12" cx="13.41" cy="14.94" rx="10.39" ry="10.61"/>
    <ellipse class="cls-1" cx="13.41" cy="15.16" rx="6.93" ry="9.1"/>
    <path class="cls-6" d="M24.71,7.75l-.31.31c-.22.22-.6.06-.6-.25,0,0,0,0,0,0,0-4.3-4.65-7.79-10.39-7.79S3.02,3.49,3.02,7.79c0,0,0,0,0,0,0,.32-.38.48-.6.25l-.31-.31c-.18-.18-.5-.12-.59.13C1.1,9.03.12,11.86,0,13.9c-.01.21.16.39.37.39h.56c.2,0,.36.16.36.36v.6c0,.2.15.36.35.37,1,.07,4.02.16,7.1-.79.05-.01.09-.04.13-.07.32-.26,3.63-1.78,4.39-2.13.1-.04.21-.04.31,0,.77.38,4.2,2.1,4.42,2.16,3.12.99,6.2.89,7.21.82.19-.01.35-.17.35-.37v-.6c0-.2.16-.36.36-.36h.56c.21,0,.38-.18.37-.39-.12-2.04-1.1-4.87-1.52-6.02-.09-.24-.4-.31-.59-.13Z"/>
    <path class="cls-5" d="M23.69,3.34c1.47-.83,1.99-1.98,2.18-2.69.07-.27-.19-.51-.46-.41-3.32,1.17-8.73-.52-11.45,4.08-.25.42-.85.42-1.1,0C10.15-.28,4.74,1.4,1.42.24c-.27-.09-.53.14-.46.41.18.71.71,1.87,2.18,2.69.25.14.31.48.1.69-1.36,1.34-2.14,3.28-1.9,5.39.33,2.95,2.71,5.34,5.65,5.69,2.74.33,5.18-1.05,6.43-3.21,1.24,2.16,3.69,3.54,6.43,3.21,2.95-.35,5.32-2.74,5.65-5.69.24-2.11-.54-4.05-1.9-5.39-.21-.2-.16-.55.1-.69Z"/>
    <path class="cls-7 upperEye" d="M 3.45,8.66 A 4.33,4.33 0 0,1 12.11,8.66"/> <!-- Top cls-7 semicircle, can't use dot (.) in the class name after 7, bottom layer -->
    <path class="cls-7" d="M 12.11,8.66 A 4.33,4.33 0 0,1 3.45,8.66"/> <!-- Bottom cls-7 semicircle, bottom layer -->
    <path class="cls-11 upperEye" d="M 4.75,8.66 A 3.03,3.03 0 0,1 10.81,8.66"/>
    <path class="cls-11" d="M 10.81,8.66 A 3.03,3.03 0 0,1 4.75,8.66"/>  
    <path class="cls-2 upperEye" d="M 5.83,8.66 A 1.95,1.95 0 0,1 9.73,8.66"/> 
    <path class="cls-2" d="M 9.73,8.66 A 1.95,1.95 0 0,1 5.83,8.66"/>  
    <path class="cls-9 upperEye" d="M 14.71,8.66 A 4.33,4.33 0 0,1 23.37,8.66"/> 
    <path class="cls-9" d="M 23.37,8.66 A 4.33,4.33 0 0,1 14.71,8.66"/>
    <path class="cls-8 upperEye" d="M 16.01,8.66 A 3.03,3.03 0 0,1 22.07,8.66"/> 
    <path class="cls-8" d="M 22.07,8.66 A 3.03,3.03 0 0,1 16.01,8.66"/>
    <path class="cls-4 upperEye" d="M 17.09,8.66 A 1.95,1.95 0 0,1 20.99,8.66"/> 
    <path class="cls-4" d="M 20.99,8.66 A 1.95,1.95 0 0,1 17.09,8.66"/>  
    <path class="cls-10" d="M14.48,13.36h0c.48-.82-.12-1.86-1.07-1.86h0c-.95,0-1.55,1.03-1.07,1.86h0c.48.82,1.67.82,2.14,0Z"/>
    <path class="cls-3" d="M10.42,27.78s-.06-.06-.09-.09c.04.03.07.06.09.09Z"/>
  </g>
</svg>