<svg width="116" height="32" xmlns="http://www.w3.org/2000/svg" xmlns:xlink="http://www.w3.org/1999/xlink">
  <defs>
    <style>
      svg>g>path {
        fill: white;
      } 
    </style> 
  </defs>
  <title>Layer 1</title>
  <g id="Layer_1-2">
    <path d="m11.24,19.15c-0.56,-0.62 -0.84,-1.52 -0.84,-2.72l0,-5.29l-3.99,0l0,8.73l-3.09,0l0,-11.34l10.18,0l0,7.49c0,0.87 0.34,1.31 1.03,1.31c0.21,0 0.43,0 0.64,-0.02l0,2.57c-0.58,0.14 -1.1,0.21 -1.56,0.21c-1.02,0 -1.81,-0.31 -2.37,-0.93l0,-0.01z" class="cls-13"/>
    <path d="m26.24,10c1.19,1.15 1.79,2.55 1.79,4.22s-0.6,3.07 -1.79,4.22s-2.64,1.72 -4.33,1.72s-3.13,-0.57 -4.3,-1.72c-1.17,-1.15 -1.75,-2.55 -1.75,-4.22s0.59,-3.09 1.76,-4.23s2.61,-1.71 4.31,-1.71s3.12,0.57 4.31,1.72zm-6.4,1.98c-0.56,0.59 -0.84,1.33 -0.84,2.23s0.28,1.64 0.84,2.22s1.26,0.87 2.1,0.87s1.54,-0.29 2.1,-0.88s0.84,-1.33 0.84,-2.21s-0.28,-1.63 -0.84,-2.22s-1.26,-0.89 -2.1,-0.89s-1.54,0.29 -2.1,0.88z" class="cls-13"/>
    <path d="m41.05,17.29l0,2.59c-0.49,0.15 -0.95,0.23 -1.38,0.23c-0.76,0 -1.37,-0.2 -1.82,-0.6c-0.45,-0.4 -0.81,-1.02 -1.09,-1.86l-1.95,-5.89l-3.03,8.11l-3.25,0l4.77,-11.73l-0.41,-1.24c-0.23,-0.63 -0.52,-1.07 -0.88,-1.33c-0.36,-0.26 -0.83,-0.39 -1.41,-0.39c-0.29,0 -0.69,0.02 -1.19,0.07l0,-2.59c0.5,-0.17 1.08,-0.25 1.72,-0.25c1.1,0 2.01,0.26 2.73,0.77c0.72,0.51 1.31,1.41 1.76,2.69l3.74,10.47c0.23,0.63 0.61,0.94 1.15,0.94l0.55,0l-0.01,0.01z" class="cls-13"/>
    <path d="m52.8,14.22c0,1.96 -0.5,3.43 -1.49,4.43s-2.28,1.5 -3.85,1.5s-2.83,-0.48 -3.83,-1.44c-0.99,-0.96 -1.49,-2.25 -1.49,-3.87l0,-6.3l3.09,0l0,6.58c0,0.67 0.21,1.21 0.63,1.63c0.42,0.41 0.96,0.62 1.62,0.62c1.44,0 2.15,-1.03 2.15,-3.09c0,-1.71 -0.28,-3.62 -0.83,-5.73l3.03,0c0.64,2.08 0.96,3.97 0.96,5.68l0.01,-0.01zm-3.5,-11.67l-1.4,4.24l-2.27,0l0,-4.79l3.67,0l0,0.55z" class="cls-13"/>
    <path d="m62.92,19.15c-0.56,-0.62 -0.84,-1.52 -0.84,-2.72l0,-5.29l-3.99,0l0,8.73l-3.09,0l0,-11.34l10.18,0l0,7.49c0,0.87 0.34,1.31 1.03,1.31c0.21,0 0.43,0 0.64,-0.02l0,2.57c-0.58,0.14 -1.1,0.21 -1.56,0.21c-1.02,0 -1.81,-0.31 -2.37,-0.93l0,-0.01z" class="cls-13"/>
    <path d="m76.98,17.29l0,2.59c-0.87,0.18 -1.72,0.27 -2.54,0.27c-3.13,0 -4.7,-1.42 -4.7,-4.26l0,-4.74l-2.86,0l0,-2.61l9.88,0l0,2.61l-3.92,0l0,4.47c0,0.64 0.18,1.1 0.53,1.36s0.92,0.4 1.72,0.4c0.23,0 0.86,-0.03 1.9,-0.09l-0.01,0z" class="cls-13"/>
    <path d="m89.31,14.22c0,1.96 -0.5,3.43 -1.49,4.43s-2.28,1.5 -3.85,1.5s-2.83,-0.48 -3.83,-1.44s-1.49,-2.25 -1.49,-3.87l0,-6.3l3.09,0l0,6.58c0,0.67 0.21,1.21 0.63,1.63s0.96,0.62 1.62,0.62c1.44,0 2.15,-1.03 2.15,-3.09c0,-1.71 -0.27,-3.62 -0.83,-5.73l3.03,0c0.64,2.08 0.96,3.97 0.96,5.68l0.01,-0.01z" class="cls-13"/>
    <path d="m111.7,10c1.19,1.15 1.79,2.55 1.79,4.22s-0.6,3.07 -1.79,4.22c-1.19,1.15 -2.64,1.72 -4.33,1.72s-3.13,-0.57 -4.3,-1.72s-1.75,-2.55 -1.75,-4.22s0.59,-3.09 1.76,-4.23s2.61,-1.71 4.31,-1.71s3.12,0.57 4.31,1.72zm-6.4,1.98c-0.56,0.59 -0.84,1.33 -0.84,2.23s0.28,1.64 0.84,2.22s1.26,0.87 2.1,0.87s1.54,-0.29 2.1,-0.88c0.56,-0.59 0.84,-1.33 0.84,-2.21s-0.28,-1.63 -0.84,-2.22c-0.56,-0.6 -1.26,-0.89 -2.1,-0.89s-1.54,0.29 -2.1,0.88z" class="cls-13"/>
    <path d="m7.39,28.52c-0.38,0.33 -0.87,0.5 -1.48,0.51l0,1.21l-0.55,0l0,-1.21c-0.61,0 -1.1,-0.17 -1.47,-0.51c-0.38,-0.33 -0.56,-0.77 -0.56,-1.32s0.19,-0.98 0.56,-1.31s0.87,-0.5 1.47,-0.5l0,-1.61l0.55,0l0,1.61c0.61,0 1.1,0.17 1.48,0.5s0.57,0.77 0.57,1.31s-0.19,0.98 -0.57,1.32zm-3.12,-0.34c0.27,0.24 0.63,0.36 1.09,0.36l0,0l0,-2.65l0,0c-0.46,0 -0.83,0.12 -1.09,0.36c-0.27,0.24 -0.4,0.56 -0.4,0.97s0.13,0.73 0.4,0.97l0,-0.01zm2.73,0c0.27,-0.24 0.41,-0.56 0.41,-0.97s-0.13,-0.73 -0.41,-0.97c-0.27,-0.24 -0.64,-0.36 -1.11,-0.36l0,0l0,2.65l0,0c0.47,0 0.84,-0.12 1.11,-0.36l0,0.01z" class="cls-13"/>
    <path id="svg_24" d="m11.71,25.9c0.33,0.35 0.5,0.78 0.5,1.3s-0.16,0.95 -0.49,1.3c-0.33,0.35 -0.73,0.53 -1.22,0.53c-0.26,0 -0.5,-0.05 -0.73,-0.15c-0.23,-0.1 -0.41,-0.25 -0.55,-0.43l0,1.8l-0.54,0l0,-3.02c0,-0.55 0.16,-0.99 0.48,-1.33s0.74,-0.51 1.26,-0.51s0.96,0.17 1.29,0.52l0,-0.01zm-0.41,2.24c0.23,-0.25 0.35,-0.56 0.35,-0.94s-0.12,-0.7 -0.35,-0.95s-0.53,-0.37 -0.89,-0.37c-0.33,0 -0.62,0.11 -0.85,0.33c-0.23,0.22 -0.34,0.54 -0.34,0.97s0.12,0.76 0.35,0.99c0.23,0.22 0.52,0.34 0.85,0.34c0.35,0 0.65,-0.12 0.88,-0.37z" class="cls-13"/>
    <path id="svg_25" d="m15.97,25.91c0.36,0.35 0.53,0.79 0.53,1.3s-0.18,0.94 -0.54,1.29c-0.36,0.35 -0.79,0.53 -1.3,0.53s-0.94,-0.18 -1.29,-0.53c-0.35,-0.35 -0.53,-0.78 -0.53,-1.29s0.18,-0.95 0.53,-1.3c0.35,-0.35 0.79,-0.53 1.3,-0.53s0.94,0.18 1.29,0.53l0.01,0zm-2.19,0.36c-0.24,0.25 -0.36,0.57 -0.36,0.94s0.12,0.68 0.36,0.94c0.24,0.25 0.54,0.38 0.9,0.38s0.67,-0.13 0.91,-0.38c0.24,-0.25 0.36,-0.56 0.36,-0.93s-0.12,-0.69 -0.36,-0.94c-0.24,-0.25 -0.54,-0.38 -0.9,-0.38s-0.66,0.13 -0.9,0.38l-0.01,-0.01z" class="cls-13"/>
    <path id="svg_26" d="m20.25,25.46l-1.64,3.57l-0.2,0l-1.65,-3.57l0.59,0l1.16,2.63l1.15,-2.63l0.59,0z" class="cls-13"/>
    <path id="svg_27" d="m23.58,28.48l0,0.47c-0.24,0.05 -0.48,0.08 -0.72,0.08c-0.81,0 -1.22,-0.38 -1.22,-1.13l0,-1.94l-0.95,0l0,-0.49l2.82,0l0,0.49l-1.33,0l0,1.91c0,0.25 0.07,0.42 0.2,0.52c0.13,0.1 0.33,0.15 0.59,0.15c0.16,0 0.37,-0.01 0.61,-0.04l0,-0.02z" class="cls-13"/>
    <path id="svg_28" d="m24.78,27.9c0,0.22 0.04,0.38 0.12,0.48c0.08,0.1 0.21,0.14 0.37,0.14c0.03,0 0.12,0 0.25,-0.01l0,0.47c-0.12,0.03 -0.26,0.05 -0.39,0.05c-0.6,0 -0.9,-0.35 -0.9,-1.06l0,-2.51l0.55,0l0,2.44z" class="cls-13"/>
    <path id="svg_29" d="m29.92,25.95l-1.09,0c0.41,0.32 0.61,0.75 0.61,1.3c0,0.49 -0.17,0.91 -0.51,1.26s-0.77,0.52 -1.29,0.52s-0.95,-0.18 -1.29,-0.53c-0.34,-0.35 -0.51,-0.78 -0.51,-1.29s0.17,-0.93 0.52,-1.26c0.35,-0.33 0.78,-0.5 1.31,-0.5l2.26,0l0,0.49l-0.01,0.01zm-1.39,2.19c0.23,-0.25 0.35,-0.56 0.35,-0.93s-0.12,-0.67 -0.35,-0.9c-0.23,-0.23 -0.53,-0.35 -0.89,-0.35s-0.66,0.12 -0.89,0.35c-0.23,0.23 -0.35,0.53 -0.35,0.91s0.12,0.68 0.35,0.93c0.23,0.25 0.53,0.38 0.89,0.38s0.65,-0.13 0.89,-0.38l0,-0.01z" class="cls-13"/>
    <path id="svg_30" d="m33.22,28.48l0,0.47c-0.24,0.05 -0.48,0.08 -0.72,0.08c-0.81,0 -1.22,-0.38 -1.22,-1.13l0,-1.94l-0.95,0l0,-0.49l2.82,0l0,0.49l-1.33,0l0,1.91c0,0.25 0.07,0.42 0.2,0.52c0.13,0.1 0.33,0.15 0.59,0.15c0.16,0 0.37,-0.01 0.61,-0.04l0,-0.02z" class="cls-13"/>
    <path id="svg_31" d="m36.79,25.76c0.23,0.25 0.35,0.59 0.35,1l0,3.48l-0.55,0l0,-3.41c0,-0.28 -0.08,-0.5 -0.24,-0.68c-0.16,-0.17 -0.37,-0.26 -0.63,-0.26s-0.49,0.09 -0.67,0.27c-0.17,0.18 -0.26,0.4 -0.26,0.67l0,2.12l-0.54,0l0,-2.54c0,-0.33 -0.13,-0.49 -0.39,-0.49c-0.06,0 -0.13,0 -0.21,0l0,-0.47c0.13,-0.03 0.26,-0.05 0.39,-0.05c0.35,0 0.58,0.16 0.68,0.47c0.27,-0.33 0.64,-0.49 1.12,-0.49c0.4,0 0.72,0.13 0.95,0.38zm-1.03,-0.87l-0.43,0l0,-1.53l0.67,0l0,0.1l-0.24,1.43z" class="cls-13"/>
    <path id="svg_32" d="m41.2,25.9c0.33,0.35 0.5,0.78 0.5,1.3s-0.16,0.95 -0.49,1.3c-0.33,0.35 -0.73,0.53 -1.22,0.53c-0.26,0 -0.5,-0.05 -0.73,-0.15c-0.23,-0.1 -0.41,-0.25 -0.55,-0.43l0,1.8l-0.54,0l0,-3.02c0,-0.55 0.16,-0.99 0.48,-1.33s0.74,-0.51 1.26,-0.51s0.96,0.17 1.29,0.52l0,-0.01zm-0.42,2.24c0.23,-0.25 0.35,-0.56 0.35,-0.94s-0.12,-0.7 -0.35,-0.95s-0.53,-0.37 -0.89,-0.37c-0.33,0 -0.62,0.11 -0.85,0.33c-0.23,0.22 -0.34,0.54 -0.34,0.97s0.12,0.76 0.35,0.99c0.23,0.22 0.52,0.34 0.85,0.34c0.35,0 0.65,-0.12 0.88,-0.37z" class="cls-13"/>
    <path id="svg_33" d="m43.07,27.9c0,0.22 0.04,0.38 0.12,0.48c0.08,0.1 0.21,0.14 0.37,0.14c0.03,0 0.12,0 0.25,-0.01l0,0.47c-0.12,0.03 -0.26,0.05 -0.39,0.05c-0.6,0 -0.9,-0.35 -0.9,-1.06l0,-2.51l0.55,0l0,2.44z" class="cls-13"/>
    <path id="svg_34" d="m47.24,25.91c0.36,0.35 0.53,0.79 0.53,1.3s-0.18,0.94 -0.54,1.29c-0.36,0.35 -0.79,0.53 -1.3,0.53s-0.94,-0.18 -1.29,-0.53c-0.35,-0.35 -0.53,-0.78 -0.53,-1.29s0.18,-0.95 0.53,-1.3c0.35,-0.35 0.79,-0.53 1.3,-0.53s0.94,0.18 1.29,0.53l0.01,0zm-2.19,0.36c-0.24,0.25 -0.36,0.57 -0.36,0.94s0.12,0.68 0.36,0.94c0.24,0.25 0.54,0.38 0.9,0.38s0.67,-0.13 0.91,-0.38c0.24,-0.25 0.36,-0.56 0.36,-0.93s-0.12,-0.69 -0.36,-0.94c-0.24,-0.25 -0.54,-0.38 -0.9,-0.38s-0.66,0.13 -0.9,0.38l-0.01,-0.01z" class="cls-13"/>
    <path id="svg_35" d="m54.38,28.48l0,0.47c-0.14,0.03 -0.27,0.05 -0.37,0.05c-0.33,0 -0.56,-0.14 -0.67,-0.42c-0.23,0.3 -0.55,0.45 -0.96,0.45s-0.7,-0.14 -0.92,-0.42l0,1.63l-0.55,0l0,-4.78l0.55,0l0,2.09c0,0.29 0.08,0.52 0.25,0.7c0.17,0.18 0.38,0.27 0.64,0.27s0.47,-0.09 0.64,-0.27c0.17,-0.18 0.25,-0.42 0.25,-0.7l0,-2.09l0.55,0l0,2.52c0,0.35 0.13,0.53 0.39,0.53c0.05,0 0.12,0 0.21,-0.02l-0.01,-0.01z" class="cls-13"/>
    <path id="svg_36" d="m57.71,28.35c-0.33,0.45 -0.8,0.67 -1.41,0.67c-0.41,0 -0.74,-0.1 -1,-0.29c-0.26,-0.19 -0.39,-0.45 -0.39,-0.76c0,-0.19 0.05,-0.36 0.15,-0.51c0.1,-0.15 0.24,-0.27 0.43,-0.36c-0.28,-0.17 -0.42,-0.43 -0.42,-0.77c0,-0.3 0.11,-0.53 0.34,-0.7c0.23,-0.17 0.53,-0.25 0.9,-0.25c0.6,0 1.04,0.2 1.34,0.61l-0.37,0.33c-0.24,-0.29 -0.55,-0.43 -0.95,-0.43c-0.46,0 -0.7,0.16 -0.7,0.49c0,0.15 0.05,0.27 0.15,0.35c0.1,0.09 0.25,0.13 0.46,0.13l0.65,0l0,0.49l-0.64,0c-0.25,0 -0.45,0.05 -0.58,0.16s-0.2,0.24 -0.2,0.41c0,0.19 0.07,0.33 0.22,0.44c0.14,0.11 0.35,0.16 0.62,0.16c0.43,0 0.77,-0.16 1.03,-0.49l0.37,0.33l0,-0.01zm-1.24,-3.46l-0.43,0l0,-1.53l0.67,0l0,0.1l-0.24,1.43z" class="cls-13"/>
    <path id="svg_37" d="m62.25,25.95l-1.09,0c0.41,0.32 0.61,0.75 0.61,1.3c0,0.49 -0.17,0.91 -0.51,1.26c-0.34,0.35 -0.77,0.52 -1.29,0.52s-0.95,-0.18 -1.29,-0.53c-0.34,-0.35 -0.51,-0.78 -0.51,-1.29s0.17,-0.93 0.52,-1.26c0.35,-0.33 0.78,-0.5 1.31,-0.5l2.26,0l0,0.49l-0.01,0.01zm-1.4,2.19c0.23,-0.25 0.35,-0.56 0.35,-0.93s-0.12,-0.67 -0.35,-0.9s-0.53,-0.35 -0.89,-0.35s-0.66,0.12 -0.89,0.35c-0.23,0.23 -0.35,0.53 -0.35,0.91s0.12,0.68 0.35,0.93c0.23,0.25 0.53,0.38 0.89,0.38s0.65,-0.13 0.89,-0.38l0,-0.01z" class="cls-13"/>
    <path id="svg_38" d="m65.82,25.76c0.23,0.25 0.35,0.59 0.35,1l0,3.48l-0.55,0l0,-3.41c0,-0.28 -0.08,-0.5 -0.24,-0.68c-0.16,-0.17 -0.37,-0.26 -0.63,-0.26s-0.49,0.09 -0.67,0.27c-0.17,0.18 -0.26,0.4 -0.26,0.67l0,2.12l-0.54,0l0,-2.54c0,-0.33 -0.13,-0.49 -0.39,-0.49c-0.06,0 -0.13,0 -0.21,0l0,-0.47c0.13,-0.03 0.26,-0.05 0.39,-0.05c0.35,0 0.58,0.16 0.68,0.47c0.27,-0.33 0.64,-0.49 1.12,-0.49c0.4,0 0.72,0.13 0.95,0.38z" class="cls-13"/>
    <path id="svg_39" d="m69.36,29.63c0,-0.21 -0.06,-0.35 -0.17,-0.43c-0.11,-0.08 -0.31,-0.16 -0.58,-0.23c-0.17,-0.05 -0.32,-0.09 -0.43,-0.13s-0.26,-0.11 -0.44,-0.21c-0.18,-0.1 -0.32,-0.21 -0.43,-0.33c-0.11,-0.12 -0.21,-0.28 -0.29,-0.48s-0.12,-0.43 -0.12,-0.68c0,-0.54 0.17,-0.97 0.5,-1.29s0.75,-0.47 1.25,-0.47c0.64,0 1.14,0.26 1.48,0.78l-0.39,0.32c-0.3,-0.39 -0.66,-0.59 -1.1,-0.59c-0.34,0 -0.63,0.11 -0.85,0.33c-0.22,0.22 -0.33,0.52 -0.33,0.9c0,0.19 0.03,0.35 0.09,0.5c0.06,0.15 0.13,0.26 0.2,0.35c0.08,0.09 0.18,0.17 0.32,0.24c0.13,0.07 0.24,0.13 0.33,0.15c0.08,0.03 0.2,0.06 0.34,0.11c0.15,0.04 0.27,0.08 0.36,0.11c0.09,0.03 0.19,0.07 0.31,0.13s0.21,0.12 0.27,0.19s0.12,0.16 0.16,0.28c0.05,0.11 0.07,0.24 0.07,0.39c0,0.25 -0.06,0.48 -0.19,0.69l-0.54,0c0.11,-0.23 0.16,-0.43 0.16,-0.61l0.02,-0.02z" class="cls-13"/>
    <path id="svg_40" d="m75.7,28.35c-0.33,0.45 -0.8,0.67 -1.41,0.67c-0.41,0 -0.74,-0.1 -1,-0.29c-0.26,-0.19 -0.39,-0.45 -0.39,-0.76c0,-0.19 0.05,-0.36 0.15,-0.51s0.24,-0.27 0.43,-0.36c-0.28,-0.17 -0.42,-0.43 -0.42,-0.77c0,-0.3 0.11,-0.53 0.34,-0.7c0.23,-0.17 0.53,-0.25 0.9,-0.25c0.6,0 1.04,0.2 1.34,0.61l-0.37,0.33c-0.24,-0.29 -0.55,-0.43 -0.95,-0.43c-0.46,0 -0.7,0.16 -0.7,0.49c0,0.15 0.05,0.27 0.15,0.35s0.25,0.13 0.46,0.13l0.65,0l0,0.49l-0.64,0c-0.25,0 -0.45,0.05 -0.58,0.16c-0.13,0.11 -0.2,0.24 -0.2,0.41c0,0.19 0.07,0.33 0.22,0.44s0.35,0.16 0.62,0.16c0.43,0 0.77,-0.16 1.03,-0.49l0.37,0.33l0,-0.01z" class="cls-13"/>
    <path id="svg_41" d="m76.45,25.46l0.55,0l0,3.49l-0.55,0l0,-3.49zm2.94,3.49l-0.7,0l-1.62,-1.89l1.51,-1.6l0.71,0l-1.53,1.59l1.63,1.9z" class="cls-13"/>
    <path id="svg_42" d="m82.48,28.76c-0.14,-0.16 -0.2,-0.38 -0.2,-0.68l0,-2.13l-1.71,0l0,3l-0.55,0l0,-3.49l2.81,0l0,2.59c0,0.31 0.13,0.46 0.38,0.46c0.05,0 0.12,0 0.22,-0.02l0,0.47c-0.14,0.03 -0.27,0.05 -0.37,0.05c-0.24,0 -0.43,-0.08 -0.57,-0.23l-0.01,-0.02z" class="cls-13"/>
    <path id="svg_43" d="m87.89,28.48l0,0.47c-0.14,0.03 -0.27,0.05 -0.38,0.05c-0.41,0 -0.65,-0.2 -0.73,-0.61c-0.13,0.2 -0.32,0.36 -0.55,0.47s-0.48,0.17 -0.75,0.17c-0.49,0 -0.89,-0.17 -1.22,-0.52c-0.32,-0.35 -0.48,-0.78 -0.48,-1.3s0.16,-0.95 0.48,-1.3c0.32,-0.35 0.73,-0.52 1.22,-0.52c0.28,0 0.54,0.06 0.78,0.18c0.24,0.12 0.42,0.29 0.55,0.5c0,-0.08 0.02,-0.28 0.04,-0.6l0.52,0c-0.05,0.72 -0.07,1.28 -0.07,1.66l0,0.87c0,0.34 0.13,0.51 0.38,0.51c0.04,0 0.11,0 0.22,-0.02l-0.01,-0.01zm-1.49,-0.3c0.23,-0.23 0.35,-0.55 0.35,-0.97s-0.12,-0.75 -0.35,-0.98c-0.23,-0.23 -0.52,-0.34 -0.85,-0.34s-0.64,0.12 -0.86,0.37c-0.23,0.25 -0.34,0.56 -0.34,0.94s0.11,0.7 0.34,0.95c0.23,0.25 0.51,0.37 0.86,0.37c0.33,0 0.61,-0.11 0.85,-0.34z" class="cls-13"/>
    <path id="svg_44" d="m89.07,27.9c0,0.22 0.04,0.38 0.12,0.48s0.21,0.14 0.37,0.14c0.03,0 0.12,0 0.25,-0.01l0,0.47c-0.12,0.03 -0.26,0.05 -0.39,0.05c-0.6,0 -0.9,-0.35 -0.9,-1.06l0,-2.51l0.55,0l0,2.44zm0.14,-4.44l-0.24,1.43l-0.43,0l0,-1.53l0.67,0l0,0.1z" class="cls-13"/>
    <path id="svg_45" d="m93.77,27.18c0,0.53 -0.18,0.97 -0.53,1.32s-0.79,0.53 -1.3,0.53s-0.94,-0.18 -1.29,-0.53c-0.35,-0.35 -0.53,-0.79 -0.53,-1.3s0.18,-0.94 0.53,-1.28c0.35,-0.34 0.78,-0.51 1.29,-0.51l0.04,0l-1.69,-1.67l0,-0.16l3.3,0l0,0.49l-2.19,0l1.69,1.69c0.46,0.45 0.69,0.93 0.69,1.43l-0.01,-0.01zm-0.93,0.96c0.24,-0.25 0.36,-0.56 0.36,-0.94s-0.12,-0.68 -0.36,-0.92s-0.54,-0.37 -0.9,-0.37s-0.66,0.12 -0.9,0.37c-0.24,0.25 -0.36,0.56 -0.36,0.93s0.12,0.68 0.36,0.93c0.24,0.25 0.54,0.37 0.9,0.37s0.66,-0.13 0.9,-0.38l0,0.01z" class="cls-13"/>
    <path id="svg_46" d="m97.2,28.35c-0.33,0.45 -0.8,0.67 -1.41,0.67c-0.41,0 -0.74,-0.1 -1,-0.29c-0.26,-0.19 -0.39,-0.45 -0.39,-0.76c0,-0.19 0.05,-0.36 0.15,-0.51s0.24,-0.27 0.43,-0.36c-0.28,-0.17 -0.42,-0.43 -0.42,-0.77c0,-0.3 0.11,-0.53 0.34,-0.7c0.23,-0.17 0.53,-0.25 0.9,-0.25c0.6,0 1.04,0.2 1.34,0.61l-0.37,0.33c-0.24,-0.29 -0.55,-0.43 -0.95,-0.43c-0.46,0 -0.7,0.16 -0.7,0.49c0,0.15 0.05,0.27 0.15,0.35s0.25,0.13 0.46,0.13l0.65,0l0,0.49l-0.64,0c-0.25,0 -0.45,0.05 -0.58,0.16c-0.13,0.11 -0.2,0.24 -0.2,0.41c0,0.19 0.07,0.33 0.22,0.44s0.35,0.16 0.62,0.16c0.43,0 0.77,-0.16 1.03,-0.49l0.37,0.33l0,-0.01z" class="cls-13"/>
    <path id="svg_47" d="m100.83,27.28c0,0.59 -0.14,1.03 -0.41,1.32s-0.63,0.43 -1.06,0.43s-0.79,-0.13 -1.06,-0.4s-0.41,-0.64 -0.41,-1.11l0,-2.06l0.55,0l0,2.09c0,0.3 0.09,0.54 0.26,0.72c0.17,0.18 0.39,0.27 0.67,0.27s0.49,-0.1 0.65,-0.29s0.25,-0.51 0.25,-0.93c0,-0.27 -0.03,-0.58 -0.1,-0.93c-0.06,-0.35 -0.14,-0.65 -0.24,-0.91l0.55,0c0.23,0.61 0.35,1.22 0.35,1.82l0,-0.02z" class="cls-13"/>
    <path id="svg_48" d="m105.62,25.95l-1.09,0c0.41,0.32 0.61,0.75 0.61,1.3c0,0.49 -0.17,0.91 -0.51,1.26c-0.34,0.35 -0.77,0.52 -1.29,0.52s-0.95,-0.18 -1.29,-0.53c-0.34,-0.35 -0.51,-0.78 -0.51,-1.29s0.17,-0.93 0.52,-1.26c0.35,-0.33 0.78,-0.5 1.31,-0.5l2.26,0l0,0.49l-0.01,0.01zm-1.39,2.19c0.23,-0.25 0.35,-0.56 0.35,-0.93s-0.12,-0.67 -0.35,-0.9s-0.53,-0.35 -0.89,-0.35s-0.66,0.12 -0.89,0.35s-0.35,0.53 -0.35,0.91s0.12,0.68 0.35,0.93c0.23,0.25 0.53,0.38 0.89,0.38s0.65,-0.13 0.89,-0.38l0,-0.01z" class="cls-13"/>
    <path id="svg_49" d="m109.19,25.76c0.23,0.25 0.35,0.59 0.35,1l0,3.48l-0.55,0l0,-3.41c0,-0.28 -0.08,-0.5 -0.24,-0.68c-0.16,-0.17 -0.37,-0.26 -0.63,-0.26s-0.49,0.09 -0.67,0.27c-0.17,0.18 -0.26,0.4 -0.26,0.67l0,2.12l-0.54,0l0,-2.54c0,-0.33 -0.13,-0.49 -0.39,-0.49c-0.06,0 -0.13,0 -0.21,0l0,-0.47c0.13,-0.03 0.26,-0.05 0.39,-0.05c0.35,0 0.58,0.16 0.68,0.47c0.27,-0.33 0.64,-0.49 1.12,-0.49c0.4,0 0.72,0.13 0.95,0.38z" class="cls-13"/>
    <path id="svg_50" d="m112.73,29.63c0,-0.21 -0.06,-0.35 -0.17,-0.43c-0.11,-0.08 -0.31,-0.16 -0.58,-0.23c-0.17,-0.05 -0.32,-0.09 -0.43,-0.13s-0.26,-0.11 -0.44,-0.21c-0.18,-0.1 -0.32,-0.21 -0.43,-0.33c-0.11,-0.12 -0.21,-0.28 -0.29,-0.48s-0.12,-0.43 -0.12,-0.68c0,-0.54 0.17,-0.97 0.5,-1.29s0.75,-0.47 1.25,-0.47c0.64,0 1.14,0.26 1.48,0.78l-0.39,0.32c-0.3,-0.39 -0.66,-0.59 -1.1,-0.59c-0.34,0 -0.63,0.11 -0.85,0.33c-0.22,0.22 -0.33,0.52 -0.33,0.9c0,0.19 0.03,0.35 0.09,0.5c0.06,0.15 0.13,0.26 0.2,0.35c0.08,0.09 0.18,0.17 0.32,0.24c0.13,0.07 0.24,0.13 0.33,0.15c0.08,0.03 0.2,0.06 0.34,0.11c0.15,0.04 0.27,0.08 0.36,0.11c0.09,0.03 0.19,0.07 0.31,0.13s0.21,0.12 0.27,0.19s0.12,0.16 0.16,0.28c0.05,0.11 0.07,0.24 0.07,0.39c0,0.25 -0.06,0.48 -0.19,0.69l-0.54,0c0.11,-0.23 0.16,-0.43 0.16,-0.61l0.02,-0.02z" class="cls-13"/>
    <path id="svg_51" d="m97.22,13.83l4.22,6.05l-3.67,0l-2.38,-3.67l-2.38,3.67l-3.67,0l4.22,-6.05l-3.85,-5.32l3.67,0l2.02,3.21l2.02,-3.21l3.67,0l-3.85,5.32l-0.02,0z" class="cls-13"/>
  </g>
</svg>