<?xml version="1.0" encoding="UTF-8"?><svg id="Layer_2" xmlns="http://www.w3.org/2000/svg" xmlns:xlink="http://www.w3.org/1999/xlink" viewBox="0 0 147.5 30.94"><defs><style>.cls-1{fill:url(#linear-gradient-2);}.cls-2{fill:#4c404f;}.cls-3{fill:url(#linear-gradient-10);}.cls-4{fill:#fff;}.cls-5{fill:url(#linear-gradient-4);}.cls-6{fill:url(#linear-gradient-3);}.cls-7{fill:url(#linear-gradient-5);}.cls-8{fill:url(#linear-gradient-8);}.cls-9{fill:url(#linear-gradient-7);}.cls-10{fill:url(#linear-gradient-9);}.cls-11{fill:url(#linear-gradient-6);}.cls-12{fill:url(#linear-gradient);}.cls-13{fill:#4a4b4d;}</style><linearGradient id="linear-gradient" x1="13.87" y1="29.05" x2="13.62" y2="17.28" gradientUnits="userSpaceOnUse"><stop offset="0" stop-color="#a86dad"/><stop offset=".47" stop-color="#a66bab"/><stop offset=".64" stop-color="#a264a6"/><stop offset=".76" stop-color="#9a589e"/><stop offset=".86" stop-color="#8f4792"/><stop offset=".94" stop-color="#813182"/><stop offset="1" stop-color="#731c73"/></linearGradient><linearGradient id="linear-gradient-2" x1="13.58" y1="27.2" x2="13.64" y2="16.8" gradientUnits="userSpaceOnUse"><stop offset="0" stop-color="#71c6a4"/><stop offset=".26" stop-color="#6dc4a2"/><stop offset=".47" stop-color="#63be9d"/><stop offset=".65" stop-color="#53b595"/><stop offset=".83" stop-color="#3ba88a"/><stop offset="1" stop-color="#1d987c"/><stop offset="1" stop-color="#1d987c"/></linearGradient><linearGradient id="linear-gradient-3" x1="13.4" y1="2.42" x2="13.54" y2="11.08" gradientUnits="userSpaceOnUse"><stop offset="0" stop-color="#882c88"/><stop offset="1" stop-color="#6b266d"/></linearGradient><linearGradient id="linear-gradient-4" x1="13.77" y1="14.98" x2="13.63" y2="2.69" gradientUnits="userSpaceOnUse"><stop offset="0" stop-color="#a86dad"/><stop offset="1" stop-color="#99549a"/></linearGradient><linearGradient id="linear-gradient-5" x1="4.48" y1="9.68" x2="12.26" y2="13.82" gradientUnits="userSpaceOnUse"><stop offset="0" stop-color="#02a97a"/><stop offset="1" stop-color="#008e64"/></linearGradient><linearGradient id="linear-gradient-6" x1="5.11" y1="10.62" x2="10.99" y2="12.48" gradientUnits="userSpaceOnUse"><stop offset="0" stop-color="#71c6a4"/><stop offset="1" stop-color="#44bc96"/></linearGradient><linearGradient id="linear-gradient-7" x1="15.85" y1="9.74" x2="23.71" y2="13.7" xlink:href="#linear-gradient-5"/><linearGradient id="linear-gradient-8" x1="16.64" y1="10.51" x2="22.43" y2="12.63" xlink:href="#linear-gradient-6"/><linearGradient id="linear-gradient-9" x1="13.64" y1="14.73" x2="13.62" y2="17.13" gradientUnits="userSpaceOnUse"><stop offset="0" stop-color="#f4f4f4"/><stop offset="1" stop-color="#c0c2c4"/></linearGradient><linearGradient id="linear-gradient-10" x1="10.53" y1="30.88" x2="10.66" y2="30.93" xlink:href="#linear-gradient-2"/></defs><g id="Layer_1-2"><ellipse class="cls-12" cx="13.64" cy="17.89" rx="10.57" ry="10.79"/><ellipse class="cls-1" cx="13.64" cy="18.12" rx="7.04" ry="9.25"/><path class="cls-6" d="M25.13,10.58l-.31.31c-.23.23-.61.06-.61-.26,0,0,0,0,0,0,0-4.38-4.73-7.92-10.57-7.92S3.07,6.25,3.07,10.62c0,0,0,0,0,0,0,.32-.38.49-.61.26l-.31-.31c-.19-.19-.5-.12-.6.13C1.12,11.88.12,14.75,0,16.83c-.01.22.16.4.38.4h.57c.2,0,.36.16.36.36v.61c0,.2.15.36.35.38,1.02.07,4.08.17,7.22-.8.05-.01.09-.04.13-.07.33-.27,3.69-1.81,4.47-2.17.1-.05.21-.04.31,0,.78.39,4.27,2.13,4.49,2.2,3.18,1,6.3.9,7.33.84.2-.01.35-.18.35-.38v-.61c0-.2.16-.36.36-.36h.57c.22,0,.39-.18.38-.4-.12-2.07-1.11-4.95-1.55-6.12-.09-.25-.41-.32-.6-.13Z"/><path class="cls-5" d="M24.08,6.1c1.5-.84,2.03-2.01,2.22-2.74.07-.28-.2-.51-.47-.42-3.38,1.19-8.88-.52-11.64,4.15-.25.43-.86.43-1.12,0C10.32,2.42,4.82,4.13,1.44,2.94c-.27-.09-.54.14-.47.42.19.72.72,1.9,2.22,2.74.26.15.31.49.1.7-1.39,1.36-2.18,3.33-1.93,5.48.34,3,2.75,5.43,5.75,5.79,2.78.33,5.27-1.07,6.53-3.26,1.26,2.19,3.75,3.59,6.53,3.26,3-.36,5.41-2.79,5.75-5.79.24-2.15-.55-4.12-1.93-5.48-.21-.21-.16-.55.1-.7Z"/><circle class="cls-7" cx="7.91" cy="11.5" r="4.4"/><circle class="cls-11" cx="7.91" cy="11.5" r="3.08"/><circle class="cls-2" cx="7.91" cy="11.5" r="1.98"/><circle class="cls-9" cx="19.36" cy="11.5" r="4.4"/><circle class="cls-8" cx="19.36" cy="11.5" r="3.08"/><circle class="cls-2" cx="19.36" cy="11.5" r="1.98"/><circle class="cls-4" cx="7.91" cy="10.66" r=".66"/><circle class="cls-4" cx="19.36" cy="10.66" r=".66"/><path class="cls-10" d="M14.23,17.14l1-1.73c.26-.45-.07-1.02-.59-1.02h-2c-.52,0-.85.57-.59,1.02l1,1.73c.26.45.92.45,1.18,0Z"/><path class="cls-3" d="M10.6,30.94s-.06-.06-.09-.09c.04.03.07.06.09.09Z"/><path class="cls-13" d="M45.24,17.15c-.56-.62-.84-1.52-.84-2.72v-5.29h-3.99v8.73h-3.09V6.53h10.18v7.49c0,.87.34,1.31,1.03,1.31.21,0,.43,0,.64-.02v2.57c-.58.14-1.1.21-1.56.21-1.02,0-1.81-.31-2.37-.93Z"/><path class="cls-13" d="M60.24,8c1.19,1.15,1.79,2.55,1.79,4.22s-.6,3.07-1.79,4.22-2.64,1.72-4.33,1.72-3.13-.57-4.3-1.72c-1.17-1.15-1.75-2.55-1.75-4.22s.59-3.09,1.76-4.23,2.61-1.71,4.31-1.71,3.12.57,4.31,1.72ZM53.84,9.98c-.56.59-.84,1.33-.84,2.23s.28,1.64.84,2.22,1.26.87,2.1.87,1.54-.29,2.1-.88.84-1.33.84-2.21-.28-1.63-.84-2.22-1.26-.89-2.1-.89-1.54.29-2.1.88Z"/><path class="cls-13" d="M75.05,15.29v2.59c-.49.15-.95.23-1.38.23-.76,0-1.37-.2-1.82-.6-.45-.4-.81-1.02-1.09-1.86l-1.95-5.89-3.03,8.11h-3.25l4.77-11.73-.41-1.24c-.23-.63-.52-1.07-.88-1.33-.36-.26-.83-.39-1.41-.39-.29,0-.69.02-1.19.07V.66c.5-.17,1.08-.25,1.72-.25,1.1,0,2.01.26,2.73.77.72.51,1.31,1.41,1.76,2.69l3.74,10.47c.23.63.61.94,1.15.94h.55Z"/><path class="cls-13" d="M86.8,12.22c0,1.96-.5,3.43-1.49,4.43s-2.28,1.5-3.85,1.5-2.83-.48-3.83-1.44c-.99-.96-1.49-2.25-1.49-3.87v-6.3h3.09v6.58c0,.67.21,1.21.63,1.63.42.41.96.62,1.62.62,1.44,0,2.15-1.03,2.15-3.09,0-1.71-.28-3.62-.83-5.73h3.03c.64,2.08.96,3.97.96,5.68ZM83.3.55l-1.4,4.24h-2.27V0h3.67v.55Z"/><path class="cls-13" d="M96.92,17.15c-.56-.62-.84-1.52-.84-2.72v-5.29h-3.99v8.73h-3.09V6.53h10.18v7.49c0,.87.34,1.31,1.03,1.31.21,0,.43,0,.64-.02v2.57c-.58.14-1.1.21-1.56.21-1.02,0-1.81-.31-2.37-.93Z"/><path class="cls-13" d="M110.98,15.29v2.59c-.87.18-1.72.27-2.54.27-3.13,0-4.7-1.42-4.7-4.26v-4.74h-2.86v-2.61h9.88v2.61h-3.92v4.47c0,.64.18,1.1.53,1.36s.92.4,1.72.4c.23,0,.86-.03,1.9-.09Z"/><path class="cls-13" d="M123.31,12.22c0,1.96-.5,3.43-1.49,4.43s-2.28,1.5-3.85,1.5-2.83-.48-3.83-1.44-1.49-2.25-1.49-3.87v-6.3h3.09v6.58c0,.67.21,1.21.63,1.63s.96.62,1.62.62c1.44,0,2.15-1.03,2.15-3.09,0-1.71-.27-3.62-.83-5.73h3.03c.64,2.08.96,3.97.96,5.68Z"/><path class="cls-13" d="M145.7,8c1.19,1.15,1.79,2.55,1.79,4.22s-.6,3.07-1.79,4.22c-1.19,1.15-2.64,1.72-4.33,1.72s-3.13-.57-4.3-1.72-1.75-2.55-1.75-4.22.59-3.09,1.76-4.23,2.61-1.71,4.31-1.71,3.12.57,4.31,1.72ZM139.3,9.98c-.56.59-.84,1.33-.84,2.23s.28,1.64.84,2.22,1.26.87,2.1.87,1.54-.29,2.1-.88c.56-.59.84-1.33.84-2.21s-.28-1.63-.84-2.22c-.56-.6-1.26-.89-2.1-.89s-1.54.29-2.1.88Z"/><path class="cls-13" d="M41.39,26.52c-.38.33-.87.5-1.48.51v1.21h-.55v-1.21c-.61,0-1.1-.17-1.47-.51-.38-.33-.56-.77-.56-1.32s.19-.98.56-1.31.87-.5,1.47-.5v-1.61h.55v1.61c.61,0,1.1.17,1.48.5s.57.77.57,1.31-.19.98-.57,1.32ZM38.27,26.18c.27.24.63.36,1.09.36h0v-2.65h0c-.46,0-.83.12-1.09.36-.27.24-.4.56-.4.97s.13.73.4.97ZM41,26.18c.27-.24.41-.56.41-.97s-.13-.73-.41-.97c-.27-.24-.64-.36-1.11-.36h0v2.65h0c.47,0,.84-.12,1.11-.36Z"/><path class="cls-13" d="M45.71,23.9c.33.35.5.78.5,1.3s-.16.95-.49,1.3c-.33.35-.73.53-1.22.53-.26,0-.5-.05-.73-.15-.23-.1-.41-.25-.55-.43v1.8h-.54v-3.02c0-.55.16-.99.48-1.33s.74-.51,1.26-.51.96.17,1.29.52ZM45.3,26.14c.23-.25.35-.56.35-.94s-.12-.7-.35-.95-.53-.37-.89-.37c-.33,0-.62.11-.85.33-.23.22-.34.54-.34.97s.12.76.35.99c.23.22.52.34.85.34.35,0,.65-.12.88-.37Z"/><path class="cls-13" d="M49.97,23.91c.36.35.53.79.53,1.3s-.18.94-.54,1.29c-.36.35-.79.53-1.3.53s-.94-.18-1.29-.53c-.35-.35-.53-.78-.53-1.29s.18-.95.53-1.3c.35-.35.79-.53,1.3-.53s.94.18,1.29.53ZM47.78,24.27c-.24.25-.36.57-.36.94s.12.68.36.94c.24.25.54.38.9.38s.67-.13.91-.38c.24-.25.36-.56.36-.93s-.12-.69-.36-.94c-.24-.25-.54-.38-.9-.38s-.66.13-.9.38Z"/><path class="cls-13" d="M54.25,23.46l-1.64,3.57h-.2l-1.65-3.57h.59l1.16,2.63,1.15-2.63h.59Z"/><path class="cls-13" d="M57.58,26.48v.47c-.24.05-.48.08-.72.08-.81,0-1.22-.38-1.22-1.13v-1.94h-.95v-.49h2.82v.49h-1.33v1.91c0,.25.07.42.2.52.13.1.33.15.59.15.16,0,.37-.01.61-.04Z"/><path class="cls-13" d="M58.78,25.9c0,.22.04.38.12.48.08.1.21.14.37.14.03,0,.12,0,.25-.01v.47c-.12.03-.26.05-.39.05-.6,0-.9-.35-.9-1.06v-2.51h.55v2.44Z"/><path class="cls-13" d="M63.92,23.95h-1.09c.41.32.61.75.61,1.3,0,.49-.17.91-.51,1.26s-.77.52-1.29.52-.95-.18-1.29-.53c-.34-.35-.51-.78-.51-1.29s.17-.93.52-1.26c.35-.33.78-.5,1.31-.5h2.26v.49ZM62.53,26.14c.23-.25.35-.56.35-.93s-.12-.67-.35-.9c-.23-.23-.53-.35-.89-.35s-.66.12-.89.35c-.23.23-.35.53-.35.91s.12.68.35.93c.23.25.53.38.89.38s.65-.13.89-.38Z"/><path class="cls-13" d="M67.22,26.48v.47c-.24.05-.48.08-.72.08-.81,0-1.22-.38-1.22-1.13v-1.94h-.95v-.49h2.82v.49h-1.33v1.91c0,.25.07.42.2.52.13.1.33.15.59.15.16,0,.37-.01.61-.04Z"/><path class="cls-13" d="M70.79,23.76c.23.25.35.59.35,1v3.48h-.55v-3.41c0-.28-.08-.5-.24-.68-.16-.17-.37-.26-.63-.26s-.49.09-.67.27c-.17.18-.26.4-.26.67v2.12h-.54v-2.54c0-.33-.13-.49-.39-.49-.06,0-.13,0-.21,0v-.47c.13-.03.26-.05.39-.05.35,0,.58.16.68.47.27-.33.64-.49,1.12-.49.4,0,.72.13.95.38ZM69.76,22.89h-.43v-1.53h.67v.1l-.24,1.43Z"/><path class="cls-13" d="M75.2,23.9c.33.35.5.78.5,1.3s-.16.95-.49,1.3c-.33.35-.73.53-1.22.53-.26,0-.5-.05-.73-.15-.23-.1-.41-.25-.55-.43v1.8h-.54v-3.02c0-.55.16-.99.48-1.33s.74-.51,1.26-.51.96.17,1.29.52ZM74.78,26.14c.23-.25.35-.56.35-.94s-.12-.7-.35-.95-.53-.37-.89-.37c-.33,0-.62.11-.85.33-.23.22-.34.54-.34.97s.12.76.35.99c.23.22.52.34.85.34.35,0,.65-.12.88-.37Z"/><path class="cls-13" d="M77.07,25.9c0,.22.04.38.12.48.08.1.21.14.37.14.03,0,.12,0,.25-.01v.47c-.12.03-.26.05-.39.05-.6,0-.9-.35-.9-1.06v-2.51h.55v2.44Z"/><path class="cls-13" d="M81.24,23.91c.36.35.53.79.53,1.3s-.18.94-.54,1.29c-.36.35-.79.53-1.3.53s-.94-.18-1.29-.53c-.35-.35-.53-.78-.53-1.29s.18-.95.53-1.3c.35-.35.79-.53,1.3-.53s.94.18,1.29.53ZM79.05,24.27c-.24.25-.36.57-.36.94s.12.68.36.94c.24.25.54.38.9.38s.67-.13.91-.38c.24-.25.36-.56.36-.93s-.12-.69-.36-.94c-.24-.25-.54-.38-.9-.38s-.66.13-.9.38Z"/><path class="cls-13" d="M88.38,26.48v.47c-.14.03-.27.05-.37.05-.33,0-.56-.14-.67-.42-.23.3-.55.45-.96.45s-.7-.14-.92-.42v1.63h-.55v-4.78h.55v2.09c0,.29.08.52.25.7.17.18.38.27.64.27s.47-.09.64-.27c.17-.18.25-.42.25-.7v-2.09h.55v2.52c0,.35.13.53.39.53.05,0,.12,0,.21-.02Z"/><path class="cls-13" d="M91.71,26.35c-.33.45-.8.67-1.41.67-.41,0-.74-.1-1-.29-.26-.19-.39-.45-.39-.76,0-.19.05-.36.15-.51.1-.15.24-.27.43-.36-.28-.17-.42-.43-.42-.77,0-.3.11-.53.34-.7.23-.17.53-.25.9-.25.6,0,1.04.2,1.34.61l-.37.33c-.24-.29-.55-.43-.95-.43-.46,0-.7.16-.7.49,0,.15.05.27.15.35.1.09.25.13.46.13h.65v.49h-.64c-.25,0-.45.05-.58.16s-.2.24-.2.41c0,.19.07.33.22.44.14.11.35.16.62.16.43,0,.77-.16,1.03-.49l.37.33ZM90.47,22.89h-.43v-1.53h.67v.1l-.24,1.43Z"/><path class="cls-13" d="M96.25,23.95h-1.09c.41.32.61.75.61,1.3,0,.49-.17.91-.51,1.26-.34.35-.77.52-1.29.52s-.95-.18-1.29-.53c-.34-.35-.51-.78-.51-1.29s.17-.93.52-1.26c.35-.33.78-.5,1.31-.5h2.26v.49ZM94.85,26.14c.23-.25.35-.56.35-.93s-.12-.67-.35-.9-.53-.35-.89-.35-.66.12-.89.35c-.23.23-.35.53-.35.91s.12.68.35.93c.23.25.53.38.89.38s.65-.13.89-.38Z"/><path class="cls-13" d="M99.82,23.76c.23.25.35.59.35,1v3.48h-.55v-3.41c0-.28-.08-.5-.24-.68-.16-.17-.37-.26-.63-.26s-.49.09-.67.27c-.17.18-.26.4-.26.67v2.12h-.54v-2.54c0-.33-.13-.49-.39-.49-.06,0-.13,0-.21,0v-.47c.13-.03.26-.05.39-.05.35,0,.58.16.68.47.27-.33.64-.49,1.12-.49.4,0,.72.13.95.38Z"/><path class="cls-13" d="M103.36,27.63c0-.21-.06-.35-.17-.43-.11-.08-.31-.16-.58-.23-.17-.05-.32-.09-.43-.13s-.26-.11-.44-.21c-.18-.1-.32-.21-.43-.33-.11-.12-.21-.28-.29-.48s-.12-.43-.12-.68c0-.54.17-.97.5-1.29s.75-.47,1.25-.47c.64,0,1.14.26,1.48.78l-.39.32c-.3-.39-.66-.59-1.1-.59-.34,0-.63.11-.85.33-.22.22-.33.52-.33.9,0,.19.03.35.09.5.06.15.13.26.2.35.08.09.18.17.32.24.13.07.24.13.33.15.08.03.2.06.34.11.15.04.27.08.36.11.09.03.19.07.31.13s.21.12.27.19.12.16.16.28c.05.11.07.24.07.39,0,.25-.06.48-.19.69h-.54c.11-.23.16-.43.16-.61Z"/><path class="cls-13" d="M109.7,26.35c-.33.45-.8.67-1.41.67-.41,0-.74-.1-1-.29-.26-.19-.39-.45-.39-.76,0-.19.05-.36.15-.51s.24-.27.43-.36c-.28-.17-.42-.43-.42-.77,0-.3.11-.53.34-.7.23-.17.53-.25.9-.25.6,0,1.04.2,1.34.61l-.37.33c-.24-.29-.55-.43-.95-.43-.46,0-.7.16-.7.49,0,.15.05.27.15.35s.25.13.46.13h.65v.49h-.64c-.25,0-.45.05-.58.16-.13.11-.2.24-.2.41,0,.19.07.33.22.44s.35.16.62.16c.43,0,.77-.16,1.03-.49l.37.33Z"/><path class="cls-13" d="M110.45,23.46h.55v3.49h-.55v-3.49ZM113.39,26.95h-.7l-1.62-1.89,1.51-1.6h.71l-1.53,1.59,1.63,1.9Z"/><path class="cls-13" d="M116.48,26.76c-.14-.16-.2-.38-.2-.68v-2.13h-1.71v3h-.55v-3.49h2.81v2.59c0,.31.13.46.38.46.05,0,.12,0,.22-.02v.47c-.14.03-.27.05-.37.05-.24,0-.43-.08-.57-.23Z"/><path class="cls-13" d="M121.89,26.48v.47c-.14.03-.27.05-.38.05-.41,0-.65-.2-.73-.61-.13.2-.32.36-.55.47s-.48.17-.75.17c-.49,0-.89-.17-1.22-.52-.32-.35-.48-.78-.48-1.3s.16-.95.48-1.3c.32-.35.73-.52,1.22-.52.28,0,.54.06.78.18.24.12.42.29.55.5,0-.08.02-.28.04-.6h.52c-.05.72-.07,1.28-.07,1.66v.87c0,.34.13.51.38.51.04,0,.11,0,.22-.02ZM120.4,26.18c.23-.23.35-.55.35-.97s-.12-.75-.35-.98c-.23-.23-.52-.34-.85-.34s-.64.12-.86.37c-.23.25-.34.56-.34.94s.11.7.34.95c.23.25.51.37.86.37.33,0,.61-.11.85-.34Z"/><path class="cls-13" d="M123.07,25.9c0,.22.04.38.12.48s.21.14.37.14c.03,0,.12,0,.25-.01v.47c-.12.03-.26.05-.39.05-.6,0-.9-.35-.9-1.06v-2.51h.55v2.44ZM123.21,21.46l-.24,1.43h-.43v-1.53h.67v.1Z"/><path class="cls-13" d="M127.77,25.18c0,.53-.18.97-.53,1.32s-.79.53-1.3.53-.94-.18-1.29-.53c-.35-.35-.53-.79-.53-1.3s.18-.94.53-1.28c.35-.34.78-.51,1.29-.51h.04l-1.69-1.67v-.16h3.3v.49h-2.19l1.69,1.69c.46.45.69.93.69,1.43ZM126.84,26.14c.24-.25.36-.56.36-.94s-.12-.68-.36-.92-.54-.37-.9-.37-.66.12-.9.37c-.24.25-.36.56-.36.93s.12.68.36.93c.24.25.54.37.9.37s.66-.13.9-.38Z"/><path class="cls-13" d="M131.2,26.35c-.33.45-.8.67-1.41.67-.41,0-.74-.1-1-.29-.26-.19-.39-.45-.39-.76,0-.19.05-.36.15-.51s.24-.27.43-.36c-.28-.17-.42-.43-.42-.77,0-.3.11-.53.34-.7.23-.17.53-.25.9-.25.6,0,1.04.2,1.34.61l-.37.33c-.24-.29-.55-.43-.95-.43-.46,0-.7.16-.7.49,0,.15.05.27.15.35s.25.13.46.13h.65v.49h-.64c-.25,0-.45.05-.58.16-.13.11-.2.24-.2.41,0,.19.07.33.22.44s.35.16.62.16c.43,0,.77-.16,1.03-.49l.37.33Z"/><path class="cls-13" d="M134.83,25.28c0,.59-.14,1.03-.41,1.32s-.63.43-1.06.43-.79-.13-1.06-.4-.41-.64-.41-1.11v-2.06h.55v2.09c0,.3.09.54.26.72.17.18.39.27.67.27s.49-.1.65-.29.25-.51.25-.93c0-.27-.03-.58-.1-.93-.06-.35-.14-.65-.24-.91h.55c.23.61.35,1.22.35,1.82Z"/><path class="cls-13" d="M139.62,23.95h-1.09c.41.32.61.75.61,1.3,0,.49-.17.91-.51,1.26-.34.35-.77.52-1.29.52s-.95-.18-1.29-.53c-.34-.35-.51-.78-.51-1.29s.17-.93.52-1.26c.35-.33.78-.5,1.31-.5h2.26v.49ZM138.23,26.14c.23-.25.35-.56.35-.93s-.12-.67-.35-.9-.53-.35-.89-.35-.66.12-.89.35-.35.53-.35.91.12.68.35.93c.23.25.53.38.89.38s.65-.13.89-.38Z"/><path class="cls-13" d="M143.19,23.76c.23.25.35.59.35,1v3.48h-.55v-3.41c0-.28-.08-.5-.24-.68-.16-.17-.37-.26-.63-.26s-.49.09-.67.27c-.17.18-.26.4-.26.67v2.12h-.54v-2.54c0-.33-.13-.49-.39-.49-.06,0-.13,0-.21,0v-.47c.13-.03.26-.05.39-.05.35,0,.58.16.68.47.27-.33.64-.49,1.12-.49.4,0,.72.13.95.38Z"/><path class="cls-13" d="M146.73,27.63c0-.21-.06-.35-.17-.43-.11-.08-.31-.16-.58-.23-.17-.05-.32-.09-.43-.13s-.26-.11-.44-.21c-.18-.1-.32-.21-.43-.33-.11-.12-.21-.28-.29-.48s-.12-.43-.12-.68c0-.54.17-.97.5-1.29s.75-.47,1.25-.47c.64,0,1.14.26,1.48.78l-.39.32c-.3-.39-.66-.59-1.1-.59-.34,0-.63.11-.85.33-.22.22-.33.52-.33.9,0,.19.03.35.09.5.06.15.13.26.2.35.08.09.18.17.32.24.13.07.24.13.33.15.08.03.2.06.34.11.15.04.27.08.36.11.09.03.19.07.31.13s.21.12.27.19.12.16.16.28c.05.11.07.24.07.39,0,.25-.06.48-.19.69h-.54c.11-.23.16-.43.16-.61Z"/><path class="cls-13" d="M131.22,11.83l4.22,6.05h-3.67l-2.38-3.67-2.38,3.67h-3.67l4.22-6.05-3.85-5.32h3.67l2.02,3.21,2.02-3.21h3.67l-3.85,5.32Z"/></g></svg>