<?xml version="1.0" encoding="UTF-8"?><svg id="Layer_2" xmlns="http://www.w3.org/2000/svg" xmlns:xlink="http://www.w3.org/1999/xlink" viewBox="0 0 58.71 74.9"><defs><style>.cls-1{fill:url(#linear-gradient-15);}.cls-2{fill:url(#linear-gradient-13);}.cls-3{fill:url(#linear-gradient-28);}.cls-4{clip-path:url(#clippath-21);}.cls-5{clip-path:url(#clippath-6);}.cls-6{clip-path:url(#clippath-7);}.cls-7{clip-path:url(#clippath-17);}.cls-8{fill:url(#linear-gradient-42);}.cls-9{clip-path:url(#clippath-15);}.cls-10{clip-path:url(#clippath-18);}.cls-11{clip-path:url(#clippath-4);}.cls-12{fill:url(#linear-gradient-2);}.cls-13{clip-path:url(#clippath-22);}.cls-14{clip-path:url(#clippath-23);}.cls-15{fill:url(#linear-gradient-43);}.cls-16{fill:url(#linear-gradient-25);}.cls-17{fill:url(#linear-gradient-10);}.cls-18{fill:url(#linear-gradient-12);}.cls-19{fill:url(#linear-gradient-40);}.cls-20{fill:url(#linear-gradient-27);}.cls-21{fill:#231f20;}.cls-22{fill:url(#linear-gradient-37);}.cls-23{clip-path:url(#clippath-9);}.cls-24{clip-path:url(#clippath-10);}.cls-25{fill:url(#linear-gradient-39);}.cls-26{clip-path:url(#clippath-25);}.cls-27{fill:url(#linear-gradient-26);}.cls-28{clip-path:url(#clippath-11);}.cls-29{fill:none;}.cls-30{fill:url(#linear-gradient-4);}.cls-31{fill:url(#linear-gradient-35);}.cls-32{fill:url(#linear-gradient-30);}.cls-33{fill:url(#linear-gradient-3);}.cls-34{fill:url(#linear-gradient-34);}.cls-35{clip-path:url(#clippath-1);}.cls-36{fill:url(#linear-gradient-5);}.cls-37{fill:url(#linear-gradient-38);}.cls-38{fill:url(#linear-gradient-22);}.cls-39{fill:url(#linear-gradient-24);}.cls-40{clip-path:url(#clippath-5);}.cls-41{clip-path:url(#clippath-20);}.cls-42{fill:url(#linear-gradient-33);}.cls-43{clip-path:url(#clippath-8);}.cls-44{fill:url(#linear-gradient-8);}.cls-45{clip-path:url(#clippath-3);}.cls-46{clip-path:url(#clippath-26);}.cls-47{clip-path:url(#clippath-12);}.cls-48{fill:url(#linear-gradient-14);}.cls-49{clip-path:url(#clippath-14);}.cls-50{fill:url(#linear-gradient-29);}.cls-51{fill:url(#linear-gradient-20);}.cls-52{fill:url(#linear-gradient-17);}.cls-53{fill:url(#linear-gradient-7);}.cls-54{clip-path:url(#clippath-19);}.cls-55{fill:url(#linear-gradient-9);}.cls-56{fill:url(#linear-gradient-11);}.cls-57{fill:url(#linear-gradient-19);}.cls-58{fill:url(#linear-gradient-6);}.cls-59{fill:url(#linear-gradient-36);}.cls-60{fill:url(#linear-gradient-21);}.cls-61{clip-path:url(#clippath-16);}.cls-62{clip-path:url(#clippath-2);}.cls-63{fill:url(#linear-gradient-32);}.cls-64{fill:url(#linear-gradient-41);}.cls-65{clip-path:url(#clippath-13);}.cls-66{fill:url(#linear-gradient-16);}.cls-67{fill:url(#linear-gradient);}.cls-68{clip-path:url(#clippath-24);}.cls-69{fill:url(#linear-gradient-23);}.cls-70{fill:url(#linear-gradient-31);}.cls-71{clip-path:url(#clippath);}.cls-72{fill:url(#linear-gradient-18);}</style><clipPath id="clippath"><path class="cls-29" d="M21.23,31.81c-.39.39-.6.9-.6,1.45s.21,1.06.6,1.45l2.65,2.65c.4.4.92.6,1.45.6s1.05-.2,1.45-.6l1.45-1.45h0s-5.55-5.55-5.55-5.55l-1.45,1.45Z"/></clipPath><linearGradient id="linear-gradient" x1="-1104.65" y1="504.52" x2="-1104.25" y2="504.52" gradientTransform="translate(9851.73 21546.94) rotate(90) scale(19.48)" gradientUnits="userSpaceOnUse"><stop offset="0" stop-color="#fbd47b"/><stop offset="1" stop-color="#fec138"/></linearGradient><clipPath id="clippath-1"><path class="cls-29" d="M33.45,33.77h0s.01,0,.02-.01c0,0,.01,0,.02-.01-.01,0-.02.02-.04.02"/></clipPath><linearGradient id="linear-gradient-2" x1="-1110.82" y1="501.08" x2="-1110.41" y2="501.08" gradientTransform="translate(9627.03 21292.15) rotate(90) scale(19.15)" gradientUnits="userSpaceOnUse"><stop offset="0" stop-color="#e2e3e4"/><stop offset="1" stop-color="#d1d3d4"/></linearGradient><linearGradient id="linear-gradient-3" x1="22.68" y1="30.64" x2="33.18" y2="30.64" gradientUnits="userSpaceOnUse"><stop offset="0" stop-color="#f37b76"/><stop offset=".31" stop-color="#f0756f"/><stop offset=".72" stop-color="#eb675f"/><stop offset="1" stop-color="#e65a4f"/></linearGradient><clipPath id="clippath-2"><path class="cls-33" d="M22.68,30.36l5.55,5.55h0s4.94-2,4.94-2c-.1.03-.21.05-.32.05-.07,0-.13,0-.2-.02-.06-.01-.13-.03-.19-.06-.06-.02-.12-.06-.18-.09-.06-.04-.11-.08-.16-.13l-3.58-3.58-3.67-3.67c-.19-.19-.3-.45-.3-.72,0-.1.01-.2.05-.3l-1.94,4.98Z"/></clipPath><linearGradient id="linear-gradient-4" x1="-1110.82" y1="500.66" x2="-1110.41" y2="500.66" gradientTransform="translate(9613.08 21292.82) rotate(90) scale(19.15)" xlink:href="#linear-gradient-3"/><clipPath id="clippath-3"><path class="cls-29" d="M32.29,33.79c.06.04.12.07.18.09-.06-.03-.12-.06-.18-.09Z"/></clipPath><linearGradient id="linear-gradient-5" x1="-1110.82" y1="501" x2="-1110.41" y2="501" gradientTransform="translate(9623.61 21292.58) rotate(90) scale(19.15)" xlink:href="#linear-gradient-2"/><clipPath id="clippath-4"><path class="cls-29" d="M32.29,33.79c-.06-.04-.11-.08-.16-.13.05.05.1.09.16.13"/></clipPath><linearGradient id="linear-gradient-6" x1="-1110.82" y1="500.99" x2="-1110.41" y2="500.99" gradientTransform="translate(9623.48 21292.48) rotate(90) scale(19.15)" xlink:href="#linear-gradient-2"/><clipPath id="clippath-5"><path class="cls-29" d="M33.45,33.77h0s0,0,.01,0c0,0,0,0,0,0M33.45,33.77s0,0,0,0c0,0,0,0,0,0M33.46,33.76s0,0,0,0c0,0,0,0,0,0"/></clipPath><linearGradient id="linear-gradient-7" x1="-1110.82" y1="501.08" x2="-1110.41" y2="501.08" gradientTransform="translate(9616.98 21296.67) rotate(90.03) scale(19.15)" xlink:href="#linear-gradient-2"/><clipPath id="clippath-6"><path class="cls-29" d="M33.36,33.83s0,0,0,0c0,0,0,0,0,0M33.37,33.82s0,0,0,0c0,0,0,0,0,0,.01,0,.02-.01.03-.02,0,0,.02-.01.03-.02,0,0,.02-.01.02-.02-.02.02-.05.03-.07.04"/></clipPath><linearGradient id="linear-gradient-8" x1="-1110.82" y1="501.08" x2="-1110.41" y2="501.08" gradientTransform="translate(9626.98 21292.11) rotate(90) scale(19.15)" xlink:href="#linear-gradient-2"/><clipPath id="clippath-7"><path class="cls-29" d="M33.27,33.87s0,0,0,0c-.01,0-.02,0-.03.01.03-.01.06-.02.09-.04-.02,0-.04.02-.06.02M33.33,33.85h0s0,0,0,0M33.36,33.83s0,0,0,0c0,0-.01,0-.02.01.01,0,.02,0,.03-.01h0s0,0,0,0Z"/></clipPath><linearGradient id="linear-gradient-9" x1="-1110.82" y1="501.07" x2="-1110.41" y2="501.07" gradientTransform="translate(9625.36 21292.73) rotate(90) scale(19.15)" xlink:href="#linear-gradient-2"/><linearGradient id="linear-gradient-10" x1="44.92" y1="9.51" x2="53.3" y2="9.51" gradientTransform="translate(21.12 -31.95) rotate(45.02)" gradientUnits="userSpaceOnUse"><stop offset="0" stop-color="#b1b2b5"/><stop offset=".28" stop-color="#b5b6b9"/><stop offset=".58" stop-color="#c2c3c5"/><stop offset=".88" stop-color="#d7d8da"/><stop offset="1" stop-color="#e2e3e4"/></linearGradient><clipPath id="clippath-8"><rect class="cls-17" x="45.36" y="7.34" width="7.5" height="4.35" transform="translate(7.67 37.53) rotate(-45.02)"/></clipPath><linearGradient id="linear-gradient-11" x1="-1123.83" y1="499.73" x2="-1123.42" y2="499.73" gradientTransform="translate(-22083.83 9853.05) rotate(-180) scale(19.7)" xlink:href="#linear-gradient-10"/><linearGradient id="linear-gradient-12" x1="15.64" y1="52.15" x2="23.71" y2="52.15" gradientTransform="matrix(1,0,0,1,0,0)" xlink:href="#linear-gradient-10"/><linearGradient id="linear-gradient-13" x1="15.64" y1="52.15" x2="23.71" y2="52.15" gradientTransform="matrix(1,0,0,1,0,0)" xlink:href="#linear-gradient-10"/><clipPath id="clippath-9"><path class="cls-2" d="M15.64,51.4l1.75,1.75c.76.76,1.82,1.2,2.9,1.2h3.43v-2.05h-3.43c-.54,0-1.07-.22-1.45-.6l-1.75-1.75-1.45,1.45Z"/></clipPath><linearGradient id="linear-gradient-14" x1="-1074.51" y1="526.2" x2="-1074.1" y2="526.2" gradientTransform="translate(7970.18 16283.8) rotate(90) scale(15.11)" xlink:href="#linear-gradient-10"/><linearGradient id="linear-gradient-15" x1="32.28" y1="39.52" x2="47.29" y2="39.52" gradientTransform="matrix(1,0,0,1,0,0)" xlink:href="#linear-gradient-10"/><linearGradient id="linear-gradient-16" x1="32.28" y1="39.52" x2="47.29" y2="39.52" gradientTransform="matrix(1,0,0,1,0,0)" xlink:href="#linear-gradient-10"/><clipPath id="clippath-10"><path class="cls-66" d="M42.17,29.75c-.43,0-.85-.04-1.25-.13.15.83.22,1.69.22,2.55,0,5.97-3.66,11.1-8.86,13.26,1.03.94,1.68,2.29,1.68,3.79v2.16c7.78-2.91,13.33-10.43,13.33-19.21,0-1.53-.17-3.04-.51-4.52-1.13,1.28-2.78,2.09-4.62,2.09"/></clipPath><linearGradient id="linear-gradient-17" x1="-1126.3" y1="529" x2="-1125.9" y2="529" gradientTransform="translate(-78553.09 36957.09) rotate(180) scale(69.79)" xlink:href="#linear-gradient-10"/><linearGradient id="linear-gradient-18" x1="8.51" y1="39.7" x2="27.28" y2="39.7" gradientTransform="matrix(1,0,0,1,0,0)" xlink:href="#linear-gradient-10"/><linearGradient id="linear-gradient-19" x1="8.51" y1="39.7" x2="27.28" y2="39.7" gradientTransform="matrix(1,0,0,1,0,0)" xlink:href="#linear-gradient-10"/><clipPath id="clippath-11"><path class="cls-57" d="M11.71,30.22l-2.9,2.9c-.4.4-.4,1.05,0,1.45l14.9,14.9v-.25c0-2.28,1.5-4.22,3.57-4.88l-14.12-14.12c-.2-.2-.46-.3-.73-.3s-.52.1-.73.3"/></clipPath><linearGradient id="linear-gradient-20" x1="-1115.15" y1="528.41" x2="-1114.75" y2="528.41" gradientTransform="translate(25669.01 54161.83) rotate(90) scale(48.54)" xlink:href="#linear-gradient-10"/><linearGradient id="linear-gradient-21" x1="6.46" y1="46.15" x2="18.41" y2="46.15" xlink:href="#linear-gradient-3"/><linearGradient id="linear-gradient-22" x1="6.46" y1="46.15" x2="18.41" y2="46.15" xlink:href="#linear-gradient-3"/><clipPath id="clippath-12"><path class="cls-38" d="M9.66,40.47l-2.9,2.9c-.4.4-.4,1.05,0,1.45l7,7c.2.2.46.3.72.3s.52-.1.73-.3l.42-.42,1.45-1.45,1.02-1.03c.4-.4.4-1.05,0-1.45l-7-7c-.2-.2-.46-.3-.73-.3s-.52.1-.73.3"/></clipPath><linearGradient id="linear-gradient-23" x1="2.58" y1="46.15" x2="22.3" y2="46.15" gradientTransform="translate(16.25 -1.49) rotate(19.65)" xlink:href="#linear-gradient-3"/><linearGradient id="linear-gradient-24" x1="23.71" y1="51.79" x2="33.96" y2="51.79" gradientTransform="matrix(1,0,0,1,0,0)" xlink:href="#linear-gradient-10"/><linearGradient id="linear-gradient-25" x1="23.71" y1="51.79" x2="33.96" y2="51.79" gradientTransform="matrix(1,0,0,1,0,0)" xlink:href="#linear-gradient-10"/><clipPath id="clippath-13"><path class="cls-16" d="M26.83,49.22c0-1.13.92-2.05,2.05-2.05s2.05.92,2.05,2.05-.92,2.05-2.05,2.05-2.05-.92-2.05-2.05M27.28,44.34c-2.06.66-3.57,2.6-3.57,4.88v10.25h10.25v-10.25c0-1.5-.65-2.85-1.68-3.79-.91-.83-2.12-1.33-3.44-1.33-.54,0-1.07.09-1.56.24"/></clipPath><linearGradient id="linear-gradient-26" x1="-1111.46" y1="522.48" x2="-1111.05" y2="522.48" gradientTransform="translate(17763.72 37771.49) rotate(90) scale(33.94)" xlink:href="#linear-gradient-10"/><clipPath id="clippath-14"><path class="cls-29" d="M26.83,49.22c0,1.13.92,2.05,2.05,2.05s2.05-.92,2.05-2.05-.92-2.05-2.05-2.05-2.05.92-2.05,2.05"/></clipPath><linearGradient id="linear-gradient-27" x1="-1111.46" y1="522.59" x2="-1111.05" y2="522.59" gradientTransform="translate(17767.82 37771.15) rotate(90) scale(33.94)" gradientUnits="userSpaceOnUse"><stop offset="0" stop-color="#f4f4f4"/><stop offset=".49" stop-color="#f0f1f1"/><stop offset=".87" stop-color="#e7e7e8"/><stop offset="1" stop-color="#e2e3e4"/></linearGradient><clipPath id="clippath-15"><path class="cls-29" d="M39.09,23.6c0,.87.36,1.65.94,2.21l4.34-4.35c-.56-.58-1.34-.94-2.21-.94-1.7,0-3.08,1.38-3.08,3.07"/></clipPath><linearGradient id="linear-gradient-28" x1="-1126.95" y1="526.55" x2="-1126.55" y2="526.55" gradientTransform="translate(-65557.72 30679.95) rotate(180) scale(58.22)" xlink:href="#linear-gradient-27"/><linearGradient id="linear-gradient-29" x1="24.57" y1="21.52" x2="49.52" y2="21.52" gradientTransform="matrix(1,0,0,1,0,0)" xlink:href="#linear-gradient-10"/><linearGradient id="linear-gradient-30" x1="24.57" y1="21.52" x2="49.52" y2="21.52" gradientTransform="matrix(1,0,0,1,0,0)" xlink:href="#linear-gradient-10"/><clipPath id="clippath-16"><path class="cls-32" d="M39.92,9.97l-15.02,14.96s-.03.03-.04.04c-.02.02-.04.04-.05.06-.02.02-.04.05-.06.08-.02.03-.04.06-.05.09-.02.03-.03.06-.04.09-.01.03-.02.06-.03.09,0,0,0,0,0,0-.03.1-.05.2-.05.3,0,.27.11.53.3.72l3.67,3.67,3.58,3.58s.1.09.16.13c.06.04.12.07.18.09.06.02.12.04.19.06.06.01.13.02.2.02.11,0,.22-.02.32-.05.02,0,.04-.01.06-.02,0,0,.02,0,.03-.01,0,0,0,0,0,0,.01,0,.03,0,.04-.02,0,0,.01,0,.02,0,0,0,.01,0,.02-.01t0,0h0s0,0,0,0c0,0,0,0,0,0,0,0,0,0,0,0,.02,0,.03-.02.05-.03,0,0,.02-.01.02-.02h0s0,0,0-.01c0,0,.02-.01.03-.02h0s.02-.02.03-.03c.02-.01.03-.02.04-.04l.02-.02,5.07-5.03c-1.59-1.11-2.63-2.95-2.63-5.04,0-3.4,2.75-6.15,6.15-6.15,2.09,0,3.93,1.04,5.04,2.63l1.41-1.41c.58-.58.9-1.35.9-2.17s-.32-1.59-.9-2.17l-.62-.62-3.08-3.08-.66-.66c-.6-.6-1.39-.9-2.17-.9s-1.57.3-2.17.9"/></clipPath><linearGradient id="linear-gradient-31" x1="-1126.95" y1="526.43" x2="-1126.55" y2="526.43" gradientTransform="translate(-65562.69 30671.31) rotate(-180) scale(58.22)" xlink:href="#linear-gradient-10"/><clipPath id="clippath-17"><path class="cls-29" d="M33.37,33.82s.01,0,.02,0c0,0,.02-.01.03-.02,0,0,.02-.01.02-.02-.02.02-.05.03-.07.04"/></clipPath><linearGradient id="linear-gradient-32" x1="-1126.95" y1="526.44" x2="-1126.55" y2="526.44" gradientTransform="translate(-65553.09 30684.6) rotate(180) scale(58.22)" xlink:href="#linear-gradient-27"/><clipPath id="clippath-18"><polyline class="cls-29" points="33.35 33.83 33.36 33.83 33.36 33.83 33.35 33.83"/></clipPath><linearGradient id="linear-gradient-33" x1="-1126.93" y1="526.07" x2="-1126.57" y2="526.07" gradientTransform="translate(-63957.02 29729.17) rotate(-179.86) scale(56.74)" xlink:href="#linear-gradient-27"/><clipPath id="clippath-19"><path class="cls-29" d="M33.27,33.87s.04-.01.06-.02c-.02,0-.04.02-.06.02M33.33,33.85s0,0,0,0c0,0,0,0,0,0h0M33.33,33.85s.01,0,.02-.01c0,0-.01,0-.02.01"/></clipPath><linearGradient id="linear-gradient-34" x1="-1126.95" y1="526.43" x2="-1126.55" y2="526.43" gradientTransform="translate(-65552.88 30685.02) rotate(180) scale(58.22)" xlink:href="#linear-gradient-27"/><clipPath id="clippath-20"><path class="cls-29" d="M24.88,24.95s-.01.01-.02.02c.01-.01.03-.03.04-.04l-.02.02Z"/></clipPath><linearGradient id="linear-gradient-35" x1="-1126.95" y1="526.16" x2="-1126.55" y2="526.16" gradientTransform="translate(-65565.9 30663.83) rotate(180) scale(58.22)" xlink:href="#linear-gradient-27"/><clipPath id="clippath-21"><path class="cls-21" d="M21.66,59.47c-2.26,0-4.1,1.84-4.1,4.1v2.05c0,.57.46,1.03,1.03,1.03h20.5c.57,0,1.03-.46,1.03-1.03v-2.05c0-2.26-1.84-4.1-4.1-4.1h-14.35Z"/></clipPath><clipPath id="clippath-22"><path class="cls-21" d="M40.03,25.81c-.58-.56-.94-1.34-.94-2.21,0-1.7,1.38-3.07,3.08-3.07.87,0,1.65.36,2.21.94.54.55.87,1.31.87,2.14,0,1.7-1.38,3.08-3.07,3.08-.83,0-1.58-.33-2.14-.87M36.01,23.6c0,2.09,1.04,3.93,2.63,5.04.67.47,1.44.81,2.27.98.4.08.82.13,1.25.13,1.84,0,3.49-.81,4.62-2.09.96-1.08,1.53-2.5,1.53-4.06,0-1.31-.41-2.52-1.11-3.52-1.11-1.59-2.96-2.63-5.04-2.63-3.4,0-6.15,2.75-6.15,6.15"/></clipPath><clipPath id="clippath-23"><path class="cls-29" d="M39.09,23.6c0,.87.36,1.65.94,2.21.55.54,1.31.87,2.14.87,1.7,0,3.07-1.38,3.07-3.08,0-.83-.33-1.58-.87-2.14-.56-.58-1.34-.94-2.21-.94-1.7,0-3.08,1.38-3.08,3.07"/></clipPath><linearGradient id="linear-gradient-36" x1="-1123.16" y1="512.73" x2="-1122.75" y2="512.73" gradientTransform="translate(-32306.65 14793.78) rotate(-180) scale(28.81)" xlink:href="#linear-gradient-2"/><linearGradient id="linear-gradient-37" x1="39.09" y1="23.6" x2="45.24" y2="23.6" xlink:href="#linear-gradient-3"/><linearGradient id="linear-gradient-38" x1="39.09" y1="23.6" x2="45.24" y2="23.6" xlink:href="#linear-gradient-3"/><clipPath id="clippath-24"><path class="cls-37" d="M39.09,23.6c0,.87.36,1.65.94,2.21.55.54,1.31.87,2.14.87,1.7,0,3.07-1.38,3.07-3.08,0-.83-.33-1.58-.87-2.14-.56-.58-1.34-.94-2.21-.94-1.7,0-3.08,1.38-3.08,3.07"/></clipPath><linearGradient id="linear-gradient-39" x1="37.93" y1="23.6" x2="46.4" y2="23.6" gradientTransform="translate(57.23 -22.31) rotate(78.93)" xlink:href="#linear-gradient-3"/><linearGradient id="linear-gradient-40" x1="26.83" y1="49.22" x2="30.93" y2="49.22" xlink:href="#linear-gradient-3"/><linearGradient id="linear-gradient-41" x1="26.83" y1="49.22" x2="30.93" y2="49.22" xlink:href="#linear-gradient-3"/><clipPath id="clippath-25"><path class="cls-64" d="M26.83,49.22c0,1.13.92,2.05,2.05,2.05s2.05-.92,2.05-2.05-.92-2.05-2.05-2.05-2.05.92-2.05,2.05"/></clipPath><linearGradient id="linear-gradient-42" x1="25.47" y1="49.22" x2="32.29" y2="49.22" gradientTransform="translate(19.33 -7.04) rotate(20.77)" xlink:href="#linear-gradient-3"/><clipPath id="clippath-26"><path class="cls-29" d="M51.04,1.79l-1.45,1.45c-.4.4-.4,1.05,0,1.45l.64.64,3.08,3.08.64.64c.4.4,1.05.4,1.45,0l1.45-1.45c.4-.4.4-1.05,0-1.45l-2.17-2.17-2.17-2.17c-.2-.2-.46-.3-.73-.3s-.52.1-.73.3"/></clipPath><linearGradient id="linear-gradient-43" x1="-1108.24" y1="508.75" x2="-1107.84" y2="508.75" gradientTransform="translate(11054.57 23965.67) rotate(90) scale(21.62)" xlink:href="#linear-gradient"/></defs><g id="Layer_1-2"><g class="cls-71"><rect class="cls-67" x="19.74" y="29.47" width="9.39" height="9.38" transform="translate(-8.39 7.95) rotate(-15.82)"/></g><g class="cls-35"><rect class="cls-12" x="33.45" y="33.75" width=".04" height=".03" transform="translate(-3.14 3.44) rotate(-5.62)"/></g><path class="cls-33" d="M22.68,30.36l5.55,5.55h0s4.94-2,4.94-2c-.1.03-.21.05-.32.05-.07,0-.13,0-.2-.02-.06-.01-.13-.03-.19-.06-.06-.02-.12-.06-.18-.09-.06-.04-.11-.08-.16-.13l-3.58-3.58-3.67-3.67c-.19-.19-.3-.45-.3-.72,0-.1.01-.2.05-.3l-1.94,4.98Z"/><g class="cls-62"><rect class="cls-30" x="22.19" y="24.89" width="11.48" height="11.5" transform="translate(-2.87 2.88) rotate(-5.62)"/></g><g class="cls-45"><rect class="cls-36" x="32.29" y="33.78" width=".19" height=".11" transform="translate(-3.16 3.33) rotate(-5.62)"/></g><g class="cls-11"><rect class="cls-58" x="32.13" y="33.65" width=".17" height=".15" transform="translate(-3.15 3.32) rotate(-5.62)"/></g><g class="cls-40"><rect class="cls-53" x="33.44" y="33.76" width=".03" height=".02" transform="translate(-3.16 3.45) rotate(-5.64)"/></g><g class="cls-5"><rect class="cls-44" x="33.36" y="33.77" width=".09" height=".06" transform="translate(-3.15 3.43) rotate(-5.62)"/></g><g class="cls-6"><rect class="cls-55" x="33.24" y="33.82" width=".12" height=".07" transform="translate(-3.16 3.42) rotate(-5.62)"/></g><rect class="cls-17" x="45.36" y="7.34" width="7.5" height="4.35" transform="translate(7.67 37.53) rotate(-45.02)"/><g class="cls-43"><rect class="cls-56" x="44" y="4.4" width="10.23" height="10.24" transform="translate(27.45 54.61) rotate(-75.3)"/></g><path class="cls-18" d="M15.64,51.4l1.75,1.75c.76.76,1.82,1.2,2.9,1.2h3.43v-2.05h-3.43c-.54,0-1.07-.22-1.45-.6l-1.75-1.75-1.45,1.45Z"/><g class="cls-23"><rect class="cls-48" x="15.76" y="47.55" width="7.83" height="9.2" transform="translate(-35.36 43.36) rotate(-60.26)"/></g><path class="cls-1" d="M42.17,29.75c-.43,0-.85-.04-1.25-.13.15.83.22,1.69.22,2.55,0,5.97-3.66,11.1-8.86,13.26,1.03.94,1.68,2.29,1.68,3.79v2.16c7.78-2.91,13.33-10.43,13.33-19.21,0-1.53-.17-3.04-.51-4.52-1.13,1.28-2.78,2.09-4.62,2.09"/><g class="cls-24"><rect class="cls-52" x="26.8" y="30.06" width="25.98" height="18.92" transform="translate(-6.07 71.8) rotate(-79.95)"/></g><path class="cls-72" d="M11.71,30.22l-2.9,2.9c-.4.4-.4,1.05,0,1.45l14.9,14.9v-.25c0-2.28,1.5-4.22,3.57-4.88l-14.12-14.12c-.2-.2-.46-.3-.73-.3s-.52.1-.73.3"/><g class="cls-28"><rect class="cls-51" x="4.81" y="26.53" width="26.07" height="26.33" transform="translate(-17.32 14.06) rotate(-29.7)"/></g><path class="cls-60" d="M9.66,40.47l-2.9,2.9c-.4.4-.4,1.05,0,1.45l7,7c.2.2.46.3.72.3s.52-.1.73-.3l.42-.42,1.45-1.45,1.02-1.03c.4-.4.4-1.05,0-1.45l-7-7c-.2-.2-.46-.3-.73-.3s-.52.1-.73.3"/><g class="cls-47"><rect class="cls-69" x="4.71" y="38.48" width="15.46" height="15.34" transform="translate(-14.8 6.87) rotate(-19.65)"/></g><path class="cls-39" d="M26.83,49.22c0-1.13.92-2.05,2.05-2.05s2.05.92,2.05,2.05-.92,2.05-2.05,2.05-2.05-.92-2.05-2.05M27.28,44.34c-2.06.66-3.57,2.6-3.57,4.88v10.25h10.25v-10.25c0-1.5-.65-2.85-1.68-3.79-.91-.83-2.12-1.33-3.44-1.33-.54,0-1.07.09-1.56.24"/><g class="cls-65"><rect class="cls-27" x="20.8" y="42.61" width="16.08" height="18.35" transform="translate(-20.25 18.57) rotate(-26.8)"/></g><g class="cls-49"><rect class="cls-20" x="26.13" y="46.47" width="5.51" height="5.51" transform="translate(-19.09 18.31) rotate(-26.8)"/></g><g class="cls-9"><rect class="cls-3" x="38.46" y="19.89" width="6.55" height="6.55" transform="translate(7.85 56.78) rotate(-73.8)"/></g><path class="cls-50" d="M39.92,9.97l-15.02,14.96s-.03.03-.04.04c-.02.02-.04.04-.05.06-.02.02-.04.05-.06.08-.02.03-.04.06-.05.09-.02.03-.03.06-.04.09-.01.03-.02.06-.03.09,0,0,0,0,0,0-.03.1-.05.2-.05.3,0,.27.11.53.3.72l3.67,3.67,3.58,3.58s.1.09.16.13c.06.04.12.07.18.09.06.02.12.04.19.06.06.01.13.02.2.02.11,0,.22-.02.32-.05.02,0,.04-.01.06-.02,0,0,.02,0,.03-.01,0,0,0,0,0,0,.01,0,.03,0,.04-.02,0,0,.01,0,.02,0,0,0,.01,0,.02-.01t0,0h0s0,0,0,0c0,0,0,0,0,0,0,0,0,0,0,0,.02,0,.03-.02.05-.03,0,0,.02-.01.02-.02h0s0,0,0-.01c0,0,.02-.01.03-.02h0s.02-.02.03-.03c.02-.01.03-.02.04-.04l.02-.02,5.07-5.03c-1.59-1.11-2.63-2.95-2.63-5.04,0-3.4,2.75-6.15,6.15-6.15,2.09,0,3.93,1.04,5.04,2.63l1.41-1.41c.58-.58.9-1.35.9-2.17s-.32-1.59-.9-2.17l-.62-.62-3.08-3.08-.66-.66c-.6-.6-1.39-.9-2.17-.9s-1.57.3-2.17.9"/><g class="cls-61"><rect class="cls-70" x="21.62" y="6.07" width="30.86" height="30.89" transform="translate(6.05 51.09) rotate(-73.8)"/></g><g class="cls-7"><rect class="cls-63" x="33.37" y="33.76" width=".06" height=".08" transform="translate(-8.37 56.45) rotate(-73.8)"/></g><g class="cls-10"><rect class="cls-42" x="33.35" y="33.83" width="0" height="0" transform="translate(-8.38 56.52) rotate(-73.94)"/></g><g class="cls-54"><rect class="cls-34" x="33.28" y="33.81" width=".06" height=".09" transform="translate(-8.49 56.4) rotate(-73.8)"/></g><g class="cls-41"><rect class="cls-31" x="24.85" y="24.93" width=".05" height=".05" transform="translate(-6.03 41.88) rotate(-73.8)"/></g><path class="cls-21" d="M21.66,59.47c-2.26,0-4.1,1.84-4.1,4.1v2.05c0,.57.46,1.03,1.03,1.03h20.5c.57,0,1.03-.46,1.03-1.03v-2.05c0-2.26-1.84-4.1-4.1-4.1h-14.35Z"/><g class="cls-4"><rect class="cls-21" x="17.07" y="55.28" width="23.54" height="15.57" transform="translate(-22.75 16.73) rotate(-23.5)"/></g><path class="cls-21" d="M40.03,25.81c-.58-.56-.94-1.34-.94-2.21,0-1.7,1.38-3.07,3.08-3.07.87,0,1.65.36,2.21.94.54.55.87,1.31.87,2.14,0,1.7-1.38,3.08-3.07,3.08-.83,0-1.58-.33-2.14-.87M36.01,23.6c0,2.09,1.04,3.93,2.63,5.04.67.47,1.44.81,2.27.98.4.08.82.13,1.25.13,1.84,0,3.49-.81,4.62-2.09.96-1.08,1.53-2.5,1.53-4.06,0-1.31-.41-2.52-1.11-3.52-1.11-1.59-2.96-2.63-5.04-2.63-3.4,0-6.15,2.75-6.15,6.15"/><g class="cls-13"><rect class="cls-21" x="35.1" y="16.53" width="14.14" height="14.14" transform="translate(12.02 61.36) rotate(-80.64)"/></g><g class="cls-14"><rect class="cls-59" x="38.63" y="20.06" width="7.07" height="7.07" transform="translate(12.02 61.36) rotate(-80.64)"/></g><path class="cls-22" d="M39.09,23.6c0,.87.36,1.65.94,2.21.55.54,1.31.87,2.14.87,1.7,0,3.07-1.38,3.07-3.08,0-.83-.33-1.58-.87-2.14-.56-.58-1.34-.94-2.21-.94-1.7,0-3.08,1.38-3.08,3.07"/><g class="cls-68"><rect class="cls-25" x="38.56" y="19.99" width="7.22" height="7.22" transform="translate(10.91 60.45) rotate(-78.93)"/></g><path class="cls-19" d="M26.83,49.22c0,1.13.92,2.05,2.05,2.05s2.05-.92,2.05-2.05-.92-2.05-2.05-2.05-2.05.92-2.05,2.05"/><g class="cls-26"><rect class="cls-8" x="26.24" y="46.58" width="5.29" height="5.29" transform="translate(-15.58 13.44) rotate(-20.77)"/></g><g class="cls-46"><rect class="cls-15" x="48.52" y=".8" width="9.4" height="9.32" transform="translate(-.08 10.09) rotate(-10.82)"/></g></g></svg>