<?xml version="1.0" encoding="UTF-8"?><svg id="Layer_2" xmlns="http://www.w3.org/2000/svg" xmlns:xlink="http://www.w3.org/1999/xlink" viewBox="0 0 51.82 31.44"><defs><style>.cls-1{fill:url(#linear-gradient-2);}.cls-2{fill:none;}.cls-3{fill:url(#linear-gradient-4);}.cls-4{fill:url(#linear-gradient-3);}.cls-5{fill:url(#linear-gradient-5);}.cls-6{fill:#7484c1;}.cls-7{fill:url(#linear-gradient-6);}.cls-8{fill:#4b6cb4;}.cls-9{fill:url(#linear-gradient);}</style><linearGradient id="linear-gradient" x1="18.23" y1="7.11" x2="35.51" y2="21.09" gradientUnits="userSpaceOnUse"><stop offset="0" stop-color="#3dafd2"/><stop offset=".33" stop-color="#3babce"/><stop offset=".64" stop-color="#359fc4"/><stop offset=".94" stop-color="#2b8cb3"/><stop offset=".99" stop-color="#2a89b0"/></linearGradient><linearGradient id="linear-gradient-2" x1="16.47" y1="9.29" x2="33.76" y2="23.26" xlink:href="#linear-gradient"/><linearGradient id="linear-gradient-3" x1="6.9" y1="11.87" x2="44.35" y2="20.26" gradientUnits="userSpaceOnUse"><stop offset="0" stop-color="#f3726f"/><stop offset="1" stop-color="#e35b50"/></linearGradient><linearGradient id="linear-gradient-4" x1="51.34" y1="27.06" x2="48.39" y2="24.63" xlink:href="#linear-gradient-3"/><linearGradient id="linear-gradient-5" x1="6.43" y1="11.05" x2="1.87" y2="7.3" xlink:href="#linear-gradient-3"/><linearGradient id="linear-gradient-6" x1="10.31" y1="2.62" x2="8.29" y2=".96" gradientUnits="userSpaceOnUse"><stop offset="0" stop-color="#3dafd2"/><stop offset=".99" stop-color="#2a89b0"/></linearGradient></defs><g id="Layer_1-2"><path class="cls-2" d="M12.37,23.22h-.02c-1.15,0-1.89-.23-2.09-.7-.2-.48.18-1.16,1.02-1.97.08.26.16.52.25.77,0,.02.01.03.02.05.03.08.06.17.1.25,0,.03.02.05.03.08.03.08.06.16.1.24.01.03.02.06.03.08.03.08.07.16.1.24.01.03.02.05.04.08.04.08.07.16.11.24.01.02.02.05.03.08.04.08.08.16.12.25,0,.02.02.04.03.06.04.08.08.17.13.25Z"/><path class="cls-6" d="M13.59,25.17s0,0,0,0c0,0,0,0,0,0-.02-.03-.04-.06-.06-.09.02.03.04.06.07.09Z"/><path class="cls-9" d="M23.76,10.77c5.36-2.19,10.47-3.54,14.34-3.94-1.06-1.38-2.35-2.58-3.82-3.53-.07-.04-.13-.08-.2-.13-.07-.04-.13-.08-.2-.12-.27-.16-.54-.32-.81-.46-.07-.04-.14-.07-.21-.11-.12-.06-.24-.12-.36-.18-.11-.05-.22-.1-.33-.15-.05-.02-.11-.05-.17-.07-.14-.06-.29-.12-.44-.18-.06-.02-.11-.04-.17-.07-.17-.06-.33-.12-.5-.18-.09-.03-.19-.06-.29-.09-.2-.07-.41-.13-.62-.18,0,0-.01,0-.02,0-.11-.03-.22-.06-.33-.09-.01,0-.03,0-.04,0-.1-.03-.21-.05-.31-.07-.02,0-.04,0-.06-.01-.1-.02-.2-.04-.29-.06-.03,0-.06-.01-.09-.02-.09-.02-.18-.03-.27-.05-.04,0-.07-.01-.11-.02-.08-.01-.17-.03-.26-.04-.04,0-.08-.01-.13-.02-.08-.01-.16-.02-.24-.03-.05,0-.1-.01-.15-.02-.07,0-.15-.02-.22-.02-.06,0-.12,0-.17-.02-.07,0-.14-.01-.21-.02-.07,0-.13,0-.2-.01-.06,0-.12,0-.18-.01-.08,0-.16,0-.24,0-.05,0-.1,0-.14,0-.13,0-.26,0-.39,0-8.46,0-15.31,6.86-15.31,15.31,0,.13,0,.25,0,.38,0,.04,0,.08,0,.13,0,.08,0,.17,0,.25,0,.05,0,.1,0,.15,0,.08,0,.15.02.23,0,.05,0,.11.01.16,0,.07.01.14.02.21,0,.06.01.11.02.17,0,.05.01.1.02.16,2.72-2.15,6.67-4.45,11.3-6.48.56-.25,1.13-.49,1.72-.73Z"/><path class="cls-1" d="M41.14,14.3s0,0,0,0c-.11-.88-.29-1.74-.54-2.58t0,0c-.28-.93-.65-1.83-1.09-2.68-2.96,0-8.61,1.49-14.82,4.02-.99.4-1.94.81-2.87,1.23-.55.25-1.09.5-1.62.75-.77.37-1.51.74-2.22,1.11-.7.37-1.37.73-2,1.1-.63.36-1.21.72-1.75,1.06-1.26.81-2.26,1.57-2.96,2.24.08.26.16.52.25.77,0,.02.01.03.02.05.03.08.06.17.1.25,0,.03.02.05.03.08.03.08.06.16.1.24.01.03.02.06.03.08.03.08.07.16.1.24.01.03.02.05.04.08.04.08.07.16.11.24.01.02.02.05.03.08.04.08.08.16.12.25,0,.02.02.04.03.06.04.08.08.17.13.25h0c.11.22.23.43.36.65.08.14.17.28.25.42.04.07.09.14.13.21.09.14.18.27.27.41,0,0,.01.02.02.03.04.05.07.1.11.15h0s.04.06.07.09c0,0,0,0,0,0,.02.03.04.06.07.09,0,0,.01.02.02.03.07.09.13.18.2.26.02.03.04.05.06.08.07.09.14.18.21.26.08.1.16.2.25.29.08.1.17.19.25.29.43.47.89.91,1.37,1.32.1.08.2.16.29.24.15.12.3.23.45.35.08.06.16.11.23.17.07.05.15.11.22.16.09.07.19.13.29.19.06.04.11.08.17.11.11.07.22.14.33.21.04.02.07.04.11.06,2.29,1.37,4.97,2.16,7.83,2.16,8.46,0,15.31-6.85,15.31-15.31,0-.62-.04-1.23-.11-1.83Z"/><path class="cls-6" d="M13.67,25.29c.07.09.13.18.2.26-.04-.04-.07-.09-.1-.13-.03-.04-.06-.08-.1-.13Z"/><path class="cls-8" d="M13.59,25.17h0s-.04-.06-.06-.09c.02.03.04.06.07.09Z"/><path class="cls-4" d="M41.14,14.3s0,0,0,0c-.11-.88-.29-1.74-.54-2.58t0,0c.84-.81,1.21-1.49,1.02-1.97-.2-.48-.94-.71-2.11-.7-2.96,0-8.61,1.49-14.82,4.02-.99.4-1.94.81-2.87,1.23-.28.12-.55.25-.82.37-.27.12-.54.25-.8.38-.19.09-.38.18-.57.28-.28.14-.56.28-.84.42-.27.14-.54.28-.81.41-.7.37-1.37.73-2,1.1-.16.09-.31.18-.46.27-.08.04-.15.09-.23.13-.15.09-.3.18-.44.27-.02.01-.05.03-.07.04-.19.12-.37.23-.56.35-1.26.81-2.26,1.57-2.96,2.24-.84.81-1.21,1.5-1.02,1.97.19.48.93.7,2.09.7h.03c.11.22.23.43.36.65.08.14.17.28.25.42.04.07.09.14.13.21.09.14.18.27.27.41,0,0,.01.02.02.03.04.05.07.1.11.15h0s.04.06.06.09c0,0,0,0,0,0,.02.03.04.06.07.09,0,0,.01.02.02.03.03.04.06.09.1.13l.02.03c-3.72.39-6.32-.09-6.91-1.54s.92-3.61,3.86-5.93c2.72-2.15,6.67-4.45,11.3-6.48.56-.25,1.13-.49,1.72-.73,5.36-2.19,10.47-3.54,14.34-3.94,3.73-.39,6.32.09,6.91,1.54.59,1.45-.93,3.61-3.86,5.93Z"/><circle class="cls-3" cx="49.5" cy="25.55" r="2.32"/><circle class="cls-5" cx="3.59" cy="8.71" r="3.59"/><circle class="cls-7" cx="9.05" cy="1.59" r="1.59"/></g></svg>