<?xml version="1.0" encoding="UTF-8"?><svg id="Layer_2" xmlns="http://www.w3.org/2000/svg" xmlns:xlink="http://www.w3.org/1999/xlink" viewBox="0 0 38.3 35.1"><defs><style>.cls-1{fill:#ffc840;}.cls-2{fill:url(#linear-gradient-2);}.cls-3{fill:url(#linear-gradient-4);}.cls-4{fill:url(#linear-gradient-3);}.cls-5{fill:url(#linear-gradient);}</style><linearGradient id="linear-gradient" x1="15.62" y1="28.28" x2="23.24" y2="32.33" gradientUnits="userSpaceOnUse"><stop offset="0" stop-color="#e6e7e8"/><stop offset=".58" stop-color="#e3e4e5"/><stop offset=".92" stop-color="#dbdcdd"/><stop offset="1" stop-color="#d8d9da"/></linearGradient><linearGradient id="linear-gradient-2" x1="1.46" y1="2.09" x2="37.71" y2="21.87" gradientUnits="userSpaceOnUse"><stop offset="0" stop-color="#71c6a4"/><stop offset=".28" stop-color="#6ac4a2"/><stop offset=".65" stop-color="#59c09c"/><stop offset="1" stop-color="#44bc96"/></linearGradient><linearGradient id="linear-gradient-3" x1=".18" y1="22.98" x2="38.31" y2="26.62" gradientUnits="userSpaceOnUse"><stop offset="0" stop-color="#f4f4f4"/><stop offset=".47" stop-color="#efeff0"/><stop offset=".98" stop-color="#e2e3e4"/><stop offset="1" stop-color="#e2e3e4"/></linearGradient><linearGradient id="linear-gradient-4" x1="10.04" y1="34.19" x2="28.26" y2="34.19" gradientUnits="userSpaceOnUse"><stop offset="0" stop-color="#f4f4f4"/><stop offset=".49" stop-color="#f0f1f1"/><stop offset=".87" stop-color="#e7e7e8"/><stop offset="1" stop-color="#e2e3e4"/></linearGradient></defs><g id="Layer_1-2"><rect class="cls-5" x="14.83" y="27.04" width="8.64" height="6.24"/><path class="cls-2" d="M38.3,1.88v20.84H0V1.88C0,.84.84,0,1.88,0h34.55c1.03,0,1.88.85,1.88,1.88Z"/><path class="cls-4" d="M38.3,22.72v2.44c0,1.03-.84,1.88-1.88,1.88H1.88c-1.03,0-1.88-.84-1.88-1.88v-2.44h38.3Z"/><path class="cls-1" d="M10.87,12.62v-.44l4.15-2.57.51.8-3.23,1.95,3.23,1.91-.51.8-4.15-2.44Z"/><path class="cls-1" d="M19.8,8.91l.87.39-3.17,7.17-.87-.41,3.17-7.16Z"/><path class="cls-1" d="M22.43,15.06l-.51-.8,3.23-1.91-3.23-1.95.51-.8,4.15,2.57v.44l-4.15,2.44Z"/><path class="cls-3" d="M25.89,33.28h-13.48c-1.29,0-2.37.81-2.37,1.83h18.23c0-1-1.05-1.83-2.37-1.83Z"/></g></svg>