<?xml version="1.0" encoding="UTF-8"?>
<svg id="Layer_2" xmlns="http://www.w3.org/2000/svg" xmlns:xlink="http://www.w3.org/1999/xlink" viewBox="0 0 33.84 34.32"><defs><style>.cls-1{fill:url(#linear-gradient-2);}.cls-2{fill:url(#linear-gradient-10);}.cls-3{fill:url(#linear-gradient-12);}.cls-4{fill:url(#linear-gradient-4);}.cls-5{fill:url(#linear-gradient-3);}.cls-6{fill:url(#linear-gradient-5);}.cls-7{fill:url(#linear-gradient-8);}.cls-8{fill:url(#linear-gradient-7);}.cls-9{fill:url(#linear-gradient-9);}.cls-10{fill:url(#linear-gradient-11);}.cls-11{fill:url(#linear-gradient-6);}.cls-12{fill:url(#linear-gradient);}</style><linearGradient id="linear-gradient" x1="22.38" y1="16.71" x2="12.72" y2="2.87" gradientUnits="userSpaceOnUse"><stop offset="0" stop-color="#e2e3e4"/><stop offset="1" stop-color="#d1d3d4"/></linearGradient><linearGradient id="linear-gradient-2" x1="5.07" y1="3.43" x2="34.04" y2="7.92" gradientUnits="userSpaceOnUse"><stop offset="0" stop-color="#f4f4f4"/><stop offset="1" stop-color="#e2e3e4"/></linearGradient><linearGradient id="linear-gradient-3" x1="5.84" y1="11.71" x2="4.77" y2="9.83" xlink:href="#linear-gradient"/><linearGradient id="linear-gradient-4" x1="3.38" y1="19.65" x2="7.48" y2="21.2" xlink:href="#linear-gradient-2"/><linearGradient id="linear-gradient-5" x1="13.85" y1="12.08" x2="12.6" y2="9.57" xlink:href="#linear-gradient"/><linearGradient id="linear-gradient-6" x1="11.06" y1="19.53" x2="15.12" y2="21.2" xlink:href="#linear-gradient-2"/><linearGradient id="linear-gradient-7" x1="21.7" y1="12.07" x2="20.52" y2="9.64" xlink:href="#linear-gradient"/><linearGradient id="linear-gradient-8" x1="18.95" y1="19.51" x2="22.98" y2="21.25" xlink:href="#linear-gradient-2"/><linearGradient id="linear-gradient-9" x1="29.46" y1="12" x2="28.5" y2="9.65" xlink:href="#linear-gradient"/><linearGradient id="linear-gradient-10" x1="26.81" y1="19.51" x2="30.84" y2="21.23" xlink:href="#linear-gradient-2"/><linearGradient id="linear-gradient-11" x1="20.48" y1="34.1" x2="14.63" y2="26.81" xlink:href="#linear-gradient"/><linearGradient id="linear-gradient-12" x1="19.94" y1="36.61" x2="16.73" y2="32.27" xlink:href="#linear-gradient-2"/></defs><g id="Layer_1-2"><path class="cls-12" d="M32.74,8.02v1.55c0,.31-.25.57-.57.57H1.67c-.31,0-.57-.25-.57-.57v-1.55h31.63Z"/><path class="cls-1" d="M33.16,8.02H.68c-.74,0-.95-1.02-.26-1.31L16.65.05c.17-.07.36-.07.53,0l16.23,6.66c.69.28.49,1.31-.26,1.31Z"/><polygon class="cls-5" points="7.41 10.14 6.64 12.11 3.6 12.11 2.83 10.14 7.41 10.14"/><polygon class="cls-4" points="7.31 28.25 2.93 28.25 3.6 12.11 6.65 12.11 7.31 28.25"/><polygon class="cls-6" points="15.28 10.14 14.51 12.11 11.47 12.11 10.7 10.14 15.28 10.14"/><polygon class="cls-11" points="15.18 28.25 10.8 28.25 11.46 12.11 14.51 12.11 15.18 28.25"/><polygon class="cls-8" points="23.14 10.14 22.37 12.11 19.34 12.11 18.56 10.14 23.14 10.14"/><polygon class="cls-7" points="23.04 28.25 18.66 28.25 19.33 12.11 22.38 12.11 23.04 28.25"/><polygon class="cls-9" points="31.01 10.14 30.24 12.11 27.2 12.11 26.43 10.14 31.01 10.14"/><polygon class="cls-2" points="30.91 28.25 26.53 28.25 27.2 12.11 30.24 12.11 30.91 28.25"/><path class="cls-10" d="M32.74,28.81v1.77c0,.05,0,.1-.02.15H1.13s-.02-.1-.02-.15v-1.77c0-.31.25-.56.56-.56h30.51c.31,0,.56.25.56.56Z"/><path class="cls-3" d="M.65,30.74h32.55c.36,0,.65.29.65.65v2.29c0,.36-.29.65-.65.65H.64c-.36,0-.64-.29-.64-.64v-2.29c0-.36.29-.65.65-.65Z"/></g></svg>